<svg width="44" height="44" viewBox="0 0 44 44" fill="none" xmlns="http://www.w3.org/2000/svg">
<path d="M36.6667 5.5H7.33333C6.8471 5.5 6.38079 5.69315 6.03697 6.03697C5.69315 6.38079 5.5 6.8471 5.5 7.33333V36.6667C5.5 37.1529 5.69315 37.6192 6.03697 37.963C6.38079 38.3068 6.8471 38.5 7.33333 38.5H23.1275V25.74H18.8412V20.7442H23.1275V17.0775C23.1275 12.815 25.7308 10.4922 29.5442 10.4922C30.8257 10.4885 32.109 10.5545 33.385 10.6883V15.125H30.7542C28.6862 15.125 28.2828 16.1113 28.2828 17.5542V20.735H33.2273L32.5857 25.7308H28.281V38.5H36.6667C37.1529 38.5 37.6192 38.3068 37.963 37.963C38.3068 37.6192 38.5 37.1529 38.5 36.6667V7.33333C38.5 6.8471 38.3068 6.38079 37.963 6.03697C37.6192 5.69315 37.1529 5.5 36.6667 5.5V5.5Z" fill="black"/>
</svg>
