<svg width="42" height="42" viewBox="0 0 42 42" fill="none" xmlns="http://www.w3.org/2000/svg">
<path d="M36.54 5.42325C35.2572 4.1405 33.7137 3.5 31.9077 3.5H10.0555C8.2495 3.5 6.706 4.1405 5.42325 5.42325C4.1405 6.706 3.5 8.2495 3.5 10.0555V31.9077C3.5 33.7137 4.1405 35.2572 5.42325 36.54C6.706 37.8227 8.2495 38.4633 10.0555 38.4633H15.155C15.4875 38.4633 15.7378 38.451 15.9058 38.4282C16.1012 38.3891 16.2776 38.2848 16.4062 38.1325C16.5725 37.9575 16.6565 37.7037 16.6565 37.3712L16.6443 35.8225C16.6373 34.8355 16.6338 34.055 16.6338 33.4775L16.1087 33.5685C15.7762 33.6297 15.3563 33.656 14.847 33.649C14.3162 33.6392 13.7871 33.5859 13.265 33.4897C12.7092 33.3871 12.186 33.1531 11.739 32.8072C11.2709 32.4531 10.9217 31.9648 10.738 31.4072L10.5105 30.8823C10.3187 30.4681 10.0779 30.0786 9.793 29.722C9.4675 29.2968 9.13675 29.0097 8.8025 28.8575L8.645 28.7438C8.53518 28.6651 8.43528 28.5734 8.3475 28.4708C8.26366 28.3755 8.19464 28.2681 8.14275 28.1522C8.09725 28.0455 8.13575 27.958 8.2565 27.8898C8.379 27.8198 8.59775 27.7865 8.918 27.7865L9.373 27.8565C9.67575 27.916 10.052 28.098 10.4983 28.4008C10.9499 28.7086 11.3271 29.1134 11.6025 29.5855C11.9525 30.2068 12.3725 30.681 12.866 31.0082C13.3595 31.3337 13.8565 31.4982 14.357 31.4982C14.8575 31.4982 15.2898 31.4598 15.6555 31.3845C16.0092 31.3114 16.3529 31.1962 16.6793 31.0415C16.8158 30.0265 17.1868 29.2425 17.794 28.6965C17.0072 28.6194 16.2273 28.4825 15.4613 28.287C14.7136 28.0816 13.9946 27.7836 13.321 27.3997C12.6162 27.016 11.9936 26.4975 11.4888 25.8737C11.004 25.2665 10.605 24.4703 10.2935 23.485C9.98375 22.498 9.828 21.3588 9.828 20.069C9.828 18.2333 10.4265 16.6705 11.6253 15.379C11.0653 14 11.1178 12.4513 11.7845 10.738C12.2255 10.5998 12.8783 10.703 13.7428 11.0442C14.6073 11.3855 15.2408 11.6777 15.6433 11.9192C16.0458 12.1642 16.3678 12.369 16.611 12.5353C18.0337 12.1393 19.504 11.9403 20.9808 11.9437C22.484 11.9437 23.94 12.1415 25.3523 12.5353L26.2167 11.9892C26.8817 11.59 27.5831 11.2548 28.3115 10.9882C29.1165 10.6837 29.729 10.6015 30.156 10.738C30.8385 12.453 30.898 14 30.3363 15.3808C31.535 16.6705 32.1353 18.2332 32.1353 20.0707C32.1353 21.3605 31.9795 22.5032 31.668 23.4955C31.3583 24.4895 30.9557 25.2857 30.4622 25.886C29.9485 26.5018 29.3233 27.0153 28.6195 27.3997C27.8845 27.8092 27.1705 28.105 26.4792 28.287C25.7132 28.4831 24.9334 28.6206 24.1465 28.6983C24.934 29.3808 25.3295 30.457 25.3295 31.9288V37.3712C25.3295 37.6285 25.3662 37.8367 25.4432 37.996C25.4786 38.0727 25.5291 38.1415 25.5916 38.1984C25.6542 38.2552 25.7275 38.2988 25.8072 38.3267C25.9752 38.3862 26.1223 38.4248 26.2518 38.4388C26.3813 38.4563 26.5668 38.4615 26.8083 38.4615H31.9077C33.7137 38.4615 35.2572 37.821 36.54 36.5382C37.821 35.2572 38.4633 33.712 38.4633 31.906V10.0555C38.4633 8.2495 37.821 6.706 36.5382 5.42325H36.54Z" fill="black"/>
</svg>
