<svg width="42" height="42" viewBox="0 0 42 42" fill="none" xmlns="http://www.w3.org/2000/svg">
<path d="M35 5.25H7C6.53587 5.25 6.09075 5.43437 5.76256 5.76256C5.43437 6.09075 5.25 6.53587 5.25 7V35C5.25 35.4641 5.43437 35.9092 5.76256 36.2374C6.09075 36.5656 6.53587 36.75 7 36.75H35C35.4641 36.75 35.9092 36.5656 36.2374 36.2374C36.5656 35.9092 36.75 35.4641 36.75 35V7C36.75 6.53587 36.5656 6.09075 36.2374 5.76256C35.9092 5.43437 35.4641 5.25 35 5.25V5.25ZM14.5932 32.0897H9.91725V17.0572H14.5932V32.0897ZM12.2552 15.0045C11.5368 15.0045 10.8477 14.7191 10.3397 14.2111C9.83166 13.703 9.54625 13.014 9.54625 12.2955C9.54625 11.577 9.83166 10.888 10.3397 10.3799C10.8477 9.87191 11.5368 9.5865 12.2552 9.5865C12.9737 9.5865 13.6628 9.87191 14.1708 10.3799C14.6788 10.888 14.9642 11.577 14.9642 12.2955C14.9642 13.014 14.6788 13.703 14.1708 14.2111C13.6628 14.7191 12.9737 15.0045 12.2552 15.0045V15.0045ZM32.0915 32.0897H27.4207V24.78C27.4207 23.037 27.3893 20.7953 24.9918 20.7953C22.5593 20.7953 22.19 22.6958 22.19 24.6575V32.0915H17.5227V17.059H22.0027V19.1135H22.0675C22.6887 17.9322 24.2147 16.6862 26.4845 16.6862C31.2165 16.6862 32.0897 19.7977 32.0897 23.8472V32.0897H32.0915Z" fill="black"/>
</svg>
