<svg width="44" height="44" viewBox="0 0 44 44" fill="none" xmlns="http://www.w3.org/2000/svg">
<path d="M38.4027 15.2258C38.3842 13.8373 38.1243 12.4626 37.6346 11.1631C37.2099 10.0671 36.5612 9.07168 35.73 8.24051C34.8989 7.40933 33.9034 6.76068 32.8074 6.33598C31.5247 5.85447 30.1695 5.59411 28.7997 5.56598C27.0361 5.48715 26.4769 5.46515 21.9999 5.46515C17.5229 5.46515 16.9491 5.46515 15.1982 5.56598C13.829 5.59431 12.4745 5.85467 11.1924 6.33598C10.0962 6.76038 9.10059 7.40893 8.26938 8.24014C7.43817 9.07135 6.78961 10.0669 6.36522 11.1631C5.88274 12.4449 5.62294 13.7997 5.59705 15.169C5.51822 16.9345 5.49438 17.4936 5.49438 21.9706C5.49438 26.4476 5.49438 27.0196 5.59705 28.7723C5.62455 30.1437 5.88305 31.4967 6.36522 32.7818C6.79033 33.8777 7.43936 34.8729 8.27085 35.7037C9.10234 36.5346 10.098 37.1829 11.1942 37.6072C12.4728 38.108 13.8276 38.387 15.2001 38.4321C16.9656 38.511 17.5247 38.5348 22.0017 38.5348C26.4787 38.5348 27.0526 38.5348 28.8034 38.4321C30.1732 38.4052 31.5284 38.1454 32.8111 37.664C33.9068 37.2388 34.902 36.59 35.7331 35.7589C36.5642 34.9277 37.213 33.9326 37.6382 32.8368C38.1204 31.5535 38.3789 30.2005 38.4064 28.8273C38.4852 27.0636 38.5091 26.5045 38.5091 22.0256C38.5054 17.5486 38.5054 16.9803 38.4027 15.2258V15.2258ZM21.9889 30.437C17.3066 30.437 13.5134 26.6438 13.5134 21.9615C13.5134 17.2791 17.3066 13.486 21.9889 13.486C24.2367 13.486 26.3925 14.3789 27.982 15.9684C29.5714 17.5579 30.4644 19.7136 30.4644 21.9615C30.4644 24.2093 29.5714 26.3651 27.982 27.9546C26.3925 29.544 24.2367 30.437 21.9889 30.437V30.437ZM30.8017 15.1488C30.5421 15.1491 30.285 15.0981 30.0451 14.9989C29.8052 14.8996 29.5873 14.7541 29.4037 14.5705C29.2201 14.3869 29.0746 14.169 28.9753 13.9291C28.8761 13.6892 28.8251 13.4321 28.8254 13.1725C28.8254 12.9131 28.8765 12.6562 28.9758 12.4165C29.075 12.1769 29.2205 11.9591 29.404 11.7757C29.5874 11.5922 29.8052 11.4467 30.0448 11.3474C30.2845 11.2482 30.5414 11.1971 30.8008 11.1971C31.0602 11.1971 31.3171 11.2482 31.5568 11.3474C31.7964 11.4467 32.0142 11.5922 32.1976 11.7757C32.3811 11.9591 32.5266 12.1769 32.6259 12.4165C32.7251 12.6562 32.7762 12.9131 32.7762 13.1725C32.7762 14.2651 31.8926 15.1488 30.8017 15.1488Z" fill="black"/>
<path d="M21.9889 27.467C25.0295 27.467 27.4944 25.0021 27.4944 21.9615C27.4944 18.9209 25.0295 16.456 21.9889 16.456C18.9483 16.456 16.4834 18.9209 16.4834 21.9615C16.4834 25.0021 18.9483 27.467 21.9889 27.467Z" fill="black"/>
</svg>
