<svg width="41" height="41" viewBox="0 0 41 41" fill="none" xmlns="http://www.w3.org/2000/svg">
<path d="M35.1439 8.68348L21.6549 20.705C21.342 20.9841 20.9373 21.1383 20.518 21.1383C20.0987 21.1383 19.6941 20.9841 19.3811 20.705L5.83575 8.69031C6.15912 8.59169 6.49534 8.5416 6.83342 8.54169H34.1668C34.4976 8.54139 34.8268 8.58915 35.1439 8.68348V8.68348ZM37.4604 11.0495C37.5407 11.3399 37.5834 11.644 37.5834 11.9584V29.0417C37.5834 29.9478 37.2234 30.8169 36.5827 31.4576C35.942 32.0984 35.0729 32.4584 34.1668 32.4584H6.83342C5.92726 32.4584 5.05822 32.0984 4.41747 31.4576C3.77672 30.8169 3.41675 29.9478 3.41675 29.0417V11.9584C3.41641 11.6501 3.45779 11.3432 3.53975 11.0461L17.1073 23.2573C18.0461 24.0939 19.2597 24.5562 20.5172 24.5562C21.7746 24.5562 22.9882 24.0939 23.927 23.2573L37.4604 11.0495V11.0495Z" fill="black"/>
</svg>
