<svg width="41" height="41" viewBox="0 0 41 41" fill="none" xmlns="http://www.w3.org/2000/svg">
<path d="M7.39375 15.1495L19.3811 25.8317C19.694 26.1103 20.0983 26.2642 20.5172 26.2642C20.9361 26.2642 21.3404 26.1103 21.6532 25.8317L33.6269 15.1614L21.4345 7.19207C21.1567 7.01052 20.832 6.91383 20.5001 6.91383C20.1682 6.91383 19.8435 7.01052 19.5656 7.19207L7.39375 15.1495ZM34.1667 15.5151V19.2563L23.927 28.3822C22.9882 29.2189 21.7746 29.6812 20.5172 29.6812C19.2597 29.6812 18.0461 29.2189 17.1073 28.3822L6.83341 19.2256V15.5168V34.1666H34.1667V15.5151ZM4.9645 12.6553L17.6967 4.33232C18.5302 3.78767 19.5044 3.49762 20.5001 3.49762C21.4958 3.49762 22.4699 3.78767 23.3035 4.33232L36.0357 12.6553C36.5109 12.9659 36.9013 13.39 37.1716 13.8893C37.4418 14.3886 37.5833 14.9473 37.5834 15.5151V34.1666C37.5834 35.0728 37.2234 35.9418 36.5827 36.5826C35.9419 37.2233 35.0729 37.5833 34.1667 37.5833H6.83341C5.92726 37.5833 5.05822 37.2233 4.41747 36.5826C3.77672 35.9418 3.41675 35.0728 3.41675 34.1666V15.5151C3.41682 14.9473 3.55837 14.3886 3.8286 13.8893C4.09883 13.39 4.48923 12.9659 4.9645 12.6553V12.6553Z" fill="black"/>
</svg>
