<svg width="271" height="241" viewBox="0 0 271 241" fill="none" xmlns="http://www.w3.org/2000/svg">
<path d="M14.6887 6.32812H12.8222C12.7881 6.08665 12.7185 5.87216 12.6134 5.68466C12.5083 5.49432 12.3734 5.33239 12.2086 5.19886C12.0438 5.06534 11.8535 4.96307 11.6376 4.89205C11.4245 4.82102 11.193 4.78551 10.943 4.78551C10.4913 4.78551 10.0978 4.89773 9.76256 5.12216C9.42733 5.34375 9.16739 5.66761 8.98273 6.09375C8.79807 6.51705 8.70574 7.03125 8.70574 7.63636C8.70574 8.25852 8.79807 8.78125 8.98273 9.20455C9.17023 9.62784 9.43159 9.94744 9.76682 10.1634C10.102 10.3793 10.4898 10.4872 10.9302 10.4872C11.1773 10.4872 11.406 10.4545 11.6163 10.3892C11.8293 10.3239 12.0182 10.2287 12.183 10.1037C12.3478 9.97585 12.4842 9.82102 12.5921 9.6392C12.7029 9.45739 12.7796 9.25 12.8222 9.01705L14.6887 9.02557C14.6404 9.42614 14.5197 9.8125 14.3265 10.1847C14.1361 10.554 13.879 10.8849 13.5552 11.1776C13.2342 11.4673 12.8506 11.6974 12.4046 11.8679C11.9614 12.0355 11.46 12.1193 10.9003 12.1193C10.1219 12.1193 9.42591 11.9432 8.81228 11.5909C8.20148 11.2386 7.71853 10.7287 7.36341 10.0611C7.01114 9.39347 6.835 8.58523 6.835 7.63636C6.835 6.68466 7.01398 5.875 7.37193 5.20739C7.72989 4.53977 8.21568 4.03125 8.82932 3.68182C9.44296 3.32955 10.1333 3.15341 10.9003 3.15341C11.406 3.15341 11.8748 3.22443 12.3066 3.36648C12.7413 3.50852 13.1262 3.71591 13.4614 3.98864C13.7967 4.25852 14.0694 4.58949 14.2796 4.98153C14.4927 5.37358 14.629 5.82244 14.6887 6.32812ZM17.7931 8.21591V12H15.9778V3.27273H17.742V6.60938H17.8187C17.9664 6.22301 18.205 5.92045 18.5346 5.7017C18.8641 5.48011 19.2775 5.36932 19.7746 5.36932C20.2292 5.36932 20.6255 5.46875 20.9636 5.66761C21.3045 5.86364 21.5687 6.14631 21.7562 6.51562C21.9465 6.8821 22.0403 7.32102 22.0374 7.83239V12H20.2221V8.15625C20.2249 7.75284 20.1226 7.43892 19.9153 7.21449C19.7107 6.99006 19.4238 6.87784 19.0545 6.87784C18.8073 6.87784 18.5886 6.9304 18.3982 7.03551C18.2107 7.14062 18.063 7.29403 17.955 7.49574C17.8499 7.6946 17.7959 7.93466 17.7931 8.21591ZM25.3325 12.1236C24.9149 12.1236 24.5427 12.0511 24.216 11.9062C23.8893 11.7585 23.6308 11.5412 23.4405 11.2543C23.253 10.9645 23.1592 10.6037 23.1592 10.1719C23.1592 9.80824 23.226 9.50284 23.3595 9.25568C23.493 9.00852 23.6748 8.80966 23.905 8.65909C24.1351 8.50852 24.3964 8.39489 24.6891 8.31818C24.9845 8.24148 25.2942 8.1875 25.618 8.15625C25.9987 8.11648 26.3055 8.07955 26.5385 8.04545C26.7714 8.00852 26.9405 7.95455 27.0456 7.88352C27.1507 7.8125 27.2033 7.70739 27.2033 7.56818V7.54261C27.2033 7.27273 27.118 7.06392 26.9476 6.91619C26.78 6.76847 26.5413 6.6946 26.2317 6.6946C25.905 6.6946 25.645 6.76705 25.4518 6.91193C25.2587 7.05398 25.1308 7.23295 25.0683 7.44886L23.3893 7.3125C23.4746 6.91477 23.6422 6.57102 23.8922 6.28125C24.1422 5.98864 24.4646 5.7642 24.8595 5.60795C25.2572 5.44886 25.7175 5.36932 26.2402 5.36932C26.6038 5.36932 26.9518 5.41193 27.2842 5.49716C27.6194 5.58239 27.9163 5.71449 28.1748 5.89347C28.4362 6.07244 28.6422 6.30256 28.7927 6.58381C28.9433 6.86222 29.0186 7.19602 29.0186 7.58523V12H27.297V11.0923H27.2459C27.1408 11.2969 27.0001 11.4773 26.824 11.6335C26.6479 11.7869 26.4362 11.9077 26.1891 11.9957C25.9419 12.081 25.6564 12.1236 25.3325 12.1236ZM25.8524 10.8707C26.1194 10.8707 26.3552 10.8182 26.5598 10.7131C26.7643 10.6051 26.9248 10.4602 27.0413 10.2784C27.1578 10.0966 27.216 9.89062 27.216 9.66051V8.96591C27.1592 9.00284 27.0811 9.03693 26.9817 9.06818C26.8851 9.09659 26.7757 9.12358 26.6535 9.14915C26.5314 9.17187 26.4092 9.19318 26.2871 9.21307C26.1649 9.23011 26.0541 9.24574 25.9547 9.25994C25.7416 9.29119 25.5555 9.34091 25.3964 9.40909C25.2373 9.47727 25.1138 9.5696 25.0257 9.68608C24.9376 9.79972 24.8936 9.94176 24.8936 10.1122C24.8936 10.3594 24.9831 10.5483 25.1621 10.679C25.3439 10.8068 25.574 10.8707 25.8524 10.8707ZM30.427 12V5.45455H32.1869V6.59659H32.2551C32.3744 6.19034 32.5747 5.88352 32.856 5.67614C33.1372 5.46591 33.4611 5.3608 33.8275 5.3608C33.9185 5.3608 34.0165 5.36648 34.1216 5.37784C34.2267 5.3892 34.319 5.40483 34.3986 5.42472V7.03551C34.3133 7.00994 34.1954 6.98722 34.0449 6.96733C33.8943 6.94744 33.7565 6.9375 33.6315 6.9375C33.3645 6.9375 33.1258 6.99574 32.9156 7.11222C32.7082 7.22585 32.5435 7.38494 32.4213 7.58949C32.302 7.79403 32.2423 8.02983 32.2423 8.29688V12H30.427ZM37.1525 3.27273V12H35.3371V3.27273H37.1525ZM41.5896 12.1278C40.9163 12.1278 40.3368 11.9915 39.851 11.7188C39.368 11.4432 38.9959 11.054 38.7345 10.5511C38.4731 10.0455 38.3425 9.44744 38.3425 8.7571C38.3425 8.08381 38.4731 7.4929 38.7345 6.98438C38.9959 6.47585 39.3638 6.07955 39.8382 5.79545C40.3155 5.51136 40.8751 5.36932 41.5172 5.36932C41.949 5.36932 42.351 5.43892 42.7231 5.57812C43.0981 5.71449 43.4248 5.92045 43.7033 6.19602C43.9845 6.47159 44.2033 6.81818 44.3595 7.2358C44.5158 7.65057 44.5939 8.13636 44.5939 8.69318V9.19176H39.0669V8.06676H42.8851C42.8851 7.8054 42.8283 7.57386 42.7146 7.37216C42.601 7.17045 42.4433 7.01278 42.2416 6.89915C42.0427 6.78267 41.8112 6.72443 41.547 6.72443C41.2714 6.72443 41.0271 6.78835 40.8141 6.91619C40.6038 7.04119 40.4391 7.21023 40.3197 7.4233C40.2004 7.63352 40.1393 7.8679 40.1365 8.12642V9.19602C40.1365 9.51989 40.1962 9.79972 40.3155 10.0355C40.4376 10.2713 40.6095 10.4531 40.8311 10.581C41.0527 10.7088 41.3155 10.7727 41.6194 10.7727C41.8212 10.7727 42.0058 10.7443 42.1734 10.6875C42.341 10.6307 42.4845 10.5455 42.6038 10.4318C42.7231 10.3182 42.8141 10.179 42.8766 10.0142L44.5555 10.125C44.4703 10.5284 44.2956 10.8807 44.0314 11.1818C43.77 11.4801 43.4319 11.7131 43.0172 11.8807C42.6052 12.0455 42.1294 12.1278 41.5896 12.1278ZM47.5939 8.21591V12H45.7785V5.45455H47.5087V6.60938H47.5854C47.7302 6.22869 47.9731 5.92756 48.3141 5.70597C48.655 5.48153 49.0683 5.36932 49.5541 5.36932C50.0087 5.36932 50.405 5.46875 50.743 5.66761C51.0811 5.86648 51.3439 6.15057 51.5314 6.51989C51.7189 6.88636 51.8126 7.32386 51.8126 7.83239V12H49.9973V8.15625C50.0001 7.75568 49.8979 7.44318 49.6905 7.21875C49.4831 6.99148 49.1976 6.87784 48.8339 6.87784C48.5896 6.87784 48.3737 6.9304 48.1862 7.03551C48.0016 7.14062 47.8567 7.29403 47.7516 7.49574C47.6493 7.6946 47.5967 7.93466 47.5939 8.21591ZM56.2263 12.1278C55.553 12.1278 54.9735 11.9915 54.4877 11.7188C54.0047 11.4432 53.6326 11.054 53.3712 10.5511C53.1099 10.0455 52.9792 9.44744 52.9792 8.7571C52.9792 8.08381 53.1099 7.4929 53.3712 6.98438C53.6326 6.47585 54.0005 6.07955 54.4749 5.79545C54.9522 5.51136 55.5118 5.36932 56.1539 5.36932C56.5857 5.36932 56.9877 5.43892 57.3599 5.57812C57.7349 5.71449 58.0616 5.92045 58.34 6.19602C58.6212 6.47159 58.84 6.81818 58.9962 7.2358C59.1525 7.65057 59.2306 8.13636 59.2306 8.69318V9.19176H53.7036V8.06676H57.5218C57.5218 7.8054 57.465 7.57386 57.3513 7.37216C57.2377 7.17045 57.08 7.01278 56.8783 6.89915C56.6795 6.78267 56.4479 6.72443 56.1837 6.72443C55.9082 6.72443 55.6638 6.78835 55.4508 6.91619C55.2405 7.04119 55.0758 7.21023 54.9565 7.4233C54.8371 7.63352 54.7761 7.8679 54.7732 8.12642V9.19602C54.7732 9.51989 54.8329 9.79972 54.9522 10.0355C55.0743 10.2713 55.2462 10.4531 55.4678 10.581C55.6894 10.7088 55.9522 10.7727 56.2562 10.7727C56.4579 10.7727 56.6425 10.7443 56.8101 10.6875C56.9778 10.6307 57.1212 10.5455 57.2405 10.4318C57.3599 10.3182 57.4508 10.179 57.5133 10.0142L59.1922 10.125C59.107 10.5284 58.9323 10.8807 58.6681 11.1818C58.4067 11.4801 58.0687 11.7131 57.6539 11.8807C57.242 12.0455 56.7661 12.1278 56.2263 12.1278Z" fill="#493041"/>
<rect width="104.261" height="38" rx="19" transform="matrix(-1 0 0 1 114.215 21)" fill="#E3E3E5"/>
<path d="M11.2905 50.9153C11.2905 47.0169 10.5525 40 10.5525 40L17.9327 56.7627C13.9009 61.2921 11.0778 62.7404 6.22989 63C8.33793 59.837 11.2905 54.8136 11.2905 50.9153Z" fill="#E2E1E6"/>
<path d="M25.6781 44.7273V36H27.5232V39.6009H31.269V36H33.1099V44.7273H31.269V41.1222H27.5232V44.7273H25.6781ZM37.5801 44.8551C36.9068 44.8551 36.3272 44.7187 35.8414 44.446C35.3585 44.1705 34.9863 43.7812 34.7249 43.2784C34.4636 42.7727 34.3329 42.1747 34.3329 41.4844C34.3329 40.8111 34.4636 40.2202 34.7249 39.7116C34.9863 39.2031 35.3542 38.8068 35.8286 38.5227C36.3059 38.2386 36.8656 38.0966 37.5076 38.0966C37.9394 38.0966 38.3414 38.1662 38.7136 38.3054C39.0886 38.4418 39.4153 38.6477 39.6937 38.9233C39.9749 39.1989 40.1937 39.5455 40.3499 39.9631C40.5062 40.3778 40.5843 40.8636 40.5843 41.4205V41.919H35.0573V40.794H38.8755C38.8755 40.5327 38.8187 40.3011 38.7051 40.0994C38.5914 39.8977 38.4337 39.7401 38.232 39.6264C38.0332 39.5099 37.8016 39.4517 37.5374 39.4517C37.2619 39.4517 37.0176 39.5156 36.8045 39.6435C36.5943 39.7685 36.4295 39.9375 36.3102 40.1506C36.1908 40.3608 36.1298 40.5952 36.1269 40.8537V41.9233C36.1269 42.2472 36.1866 42.527 36.3059 42.7628C36.4281 42.9986 36.5999 43.1804 36.8215 43.3082C37.0431 43.4361 37.3059 43.5 37.6099 43.5C37.8116 43.5 37.9962 43.4716 38.1639 43.4148C38.3315 43.358 38.4749 43.2727 38.5943 43.1591C38.7136 43.0455 38.8045 42.9062 38.867 42.7415L40.546 42.8523C40.4607 43.2557 40.286 43.608 40.0218 43.9091C39.7604 44.2074 39.4224 44.4403 39.0076 44.608C38.5957 44.7727 38.1198 44.8551 37.5801 44.8551ZM42.7139 47.1818C42.4838 47.1818 42.2679 47.1634 42.0662 47.1264C41.8673 47.0923 41.7026 47.0483 41.5719 46.9943L41.981 45.6392C42.194 45.7045 42.3858 45.7401 42.5563 45.7457C42.7296 45.7514 42.8787 45.7116 43.0037 45.6264C43.1315 45.5412 43.2352 45.3963 43.3148 45.1918L43.4213 44.9148L41.0733 38.1818H42.9824L44.3375 42.9886H44.4057L45.7736 38.1818H47.6955L45.1514 45.4347C45.0293 45.7869 44.8631 46.0937 44.6529 46.3551C44.4455 46.6193 44.1827 46.8224 43.8645 46.9645C43.5463 47.1094 43.1628 47.1818 42.7139 47.1818ZM54.8833 38.1818V39.5455H50.9416V38.1818H54.8833ZM51.8364 36.6136H53.6518V42.7159C53.6518 42.8835 53.6774 43.0142 53.7285 43.108C53.7796 43.1989 53.8506 43.2628 53.9416 43.2997C54.0353 43.3366 54.1433 43.3551 54.2654 43.3551C54.3506 43.3551 54.4359 43.348 54.5211 43.3338C54.6063 43.3168 54.6717 43.304 54.7171 43.2955L55.0026 44.6463C54.9117 44.6747 54.7839 44.7074 54.6191 44.7443C54.4543 44.7841 54.2541 44.8082 54.0183 44.8168C53.5808 44.8338 53.1972 44.7756 52.8677 44.642C52.541 44.5085 52.2867 44.3011 52.1049 44.0199C51.9231 43.7386 51.8336 43.3835 51.8364 42.9545V36.6136ZM58.0218 40.9432V44.7273H56.2065V36H57.9707V39.3366H58.0474C58.1951 38.9503 58.4337 38.6477 58.7633 38.429C59.0928 38.2074 59.5062 38.0966 60.0033 38.0966C60.4579 38.0966 60.8542 38.196 61.1923 38.3949C61.5332 38.5909 61.7974 38.8736 61.9849 39.2429C62.1752 39.6094 62.269 40.0483 62.2661 40.5597V44.7273H60.4508V40.8835C60.4536 40.4801 60.3514 40.1662 60.144 39.9418C59.9394 39.7173 59.6525 39.6051 59.2832 39.6051C59.036 39.6051 58.8173 39.6577 58.6269 39.7628C58.4394 39.8679 58.2917 40.0213 58.1837 40.223C58.0786 40.4219 58.0247 40.6619 58.0218 40.9432ZM66.6777 44.8551C66.0044 44.8551 65.4249 44.7187 64.9391 44.446C64.4561 44.1705 64.084 43.7812 63.8226 43.2784C63.5612 42.7727 63.4305 42.1747 63.4305 41.4844C63.4305 40.8111 63.5612 40.2202 63.8226 39.7116C64.084 39.2031 64.4519 38.8068 64.9263 38.5227C65.4036 38.2386 65.9632 38.0966 66.6053 38.0966C67.0371 38.0966 67.4391 38.1662 67.8112 38.3054C68.1862 38.4418 68.5129 38.6477 68.7913 38.9233C69.0726 39.1989 69.2913 39.5455 69.4476 39.9631C69.6038 40.3778 69.682 40.8636 69.682 41.4205V41.919H64.155V40.794H67.9732C67.9732 40.5327 67.9163 40.3011 67.8027 40.0994C67.6891 39.8977 67.5314 39.7401 67.3297 39.6264C67.1308 39.5099 66.8993 39.4517 66.6351 39.4517C66.3595 39.4517 66.1152 39.5156 65.9021 39.6435C65.6919 39.7685 65.5271 39.9375 65.4078 40.1506C65.2885 40.3608 65.2274 40.5952 65.2246 40.8537V41.9233C65.2246 42.2472 65.2842 42.527 65.4036 42.7628C65.5257 42.9986 65.6976 43.1804 65.9192 43.3082C66.1408 43.4361 66.4036 43.5 66.7075 43.5C66.9092 43.5 67.0939 43.4716 67.2615 43.4148C67.4291 43.358 67.5726 43.2727 67.6919 43.1591C67.8112 43.0455 67.9021 42.9062 67.9646 42.7415L69.6436 42.8523C69.5584 43.2557 69.3837 43.608 69.1195 43.9091C68.8581 44.2074 68.52 44.4403 68.1053 44.608C67.6933 44.7727 67.2175 44.8551 66.6777 44.8551ZM70.8666 44.7273V38.1818H72.6266V39.3239H72.6948C72.8141 38.9176 73.0144 38.6108 73.2956 38.4034C73.5769 38.1932 73.9007 38.0881 74.2672 38.0881C74.3581 38.0881 74.4561 38.0937 74.5612 38.1051C74.6663 38.1165 74.7587 38.1321 74.8382 38.152V39.7628C74.753 39.7372 74.6351 39.7145 74.4845 39.6946C74.334 39.6747 74.1962 39.6648 74.0712 39.6648C73.8041 39.6648 73.5655 39.723 73.3553 39.8395C73.1479 39.9531 72.9831 40.1122 72.8609 40.3168C72.7416 40.5213 72.682 40.7571 72.682 41.0241V44.7273H70.8666ZM78.4551 44.8551C77.7818 44.8551 77.2022 44.7187 76.7164 44.446C76.2335 44.1705 75.8613 43.7812 75.5999 43.2784C75.3386 42.7727 75.2079 42.1747 75.2079 41.4844C75.2079 40.8111 75.3386 40.2202 75.5999 39.7116C75.8613 39.2031 76.2292 38.8068 76.7036 38.5227C77.1809 38.2386 77.7406 38.0966 78.3826 38.0966C78.8144 38.0966 79.2164 38.1662 79.5886 38.3054C79.9636 38.4418 80.2903 38.6477 80.5687 38.9233C80.8499 39.1989 81.0687 39.5455 81.2249 39.9631C81.3812 40.3778 81.4593 40.8636 81.4593 41.4205V41.919H75.9323V40.794H79.7505C79.7505 40.5327 79.6937 40.3011 79.5801 40.0994C79.4664 39.8977 79.3087 39.7401 79.107 39.6264C78.9082 39.5099 78.6766 39.4517 78.4124 39.4517C78.1369 39.4517 77.8926 39.5156 77.6795 39.6435C77.4693 39.7685 77.3045 39.9375 77.1852 40.1506C77.0658 40.3608 77.0048 40.5952 77.0019 40.8537V41.9233C77.0019 42.2472 77.0616 42.527 77.1809 42.7628C77.3031 42.9986 77.4749 43.1804 77.6965 43.3082C77.9181 43.4361 78.1809 43.5 78.4849 43.5C78.6866 43.5 78.8712 43.4716 79.0389 43.4148C79.2065 43.358 79.3499 43.2727 79.4693 43.1591C79.5886 43.0455 79.6795 42.9062 79.742 42.7415L81.421 42.8523C81.3357 43.2557 81.161 43.608 80.8968 43.9091C80.6354 44.2074 80.2974 44.4403 79.8826 44.608C79.4707 44.7727 78.9948 44.8551 78.4551 44.8551ZM84.813 36L84.6468 42.1108H83.0872L82.9167 36H84.813ZM83.867 44.8381C83.5857 44.8381 83.3443 44.7386 83.1426 44.5398C82.9408 44.3381 82.8414 44.0966 82.8443 43.8153C82.8414 43.5369 82.9408 43.2983 83.1426 43.0994C83.3443 42.9006 83.5857 42.8011 83.867 42.8011C84.1369 42.8011 84.3741 42.9006 84.5786 43.0994C84.7832 43.2983 84.8869 43.5369 84.8897 43.8153C84.8869 44.0028 84.8372 44.1747 84.7406 44.331C84.6468 44.4844 84.5232 44.608 84.3698 44.7017C84.2164 44.7926 84.0488 44.8381 83.867 44.8381ZM88.7036 36L88.5374 42.1108H86.9778L86.8073 36H88.7036ZM87.7576 44.8381C87.4764 44.8381 87.2349 44.7386 87.0332 44.5398C86.8315 44.3381 86.732 44.0966 86.7349 43.8153C86.732 43.5369 86.8315 43.2983 87.0332 43.0994C87.2349 42.9006 87.4764 42.8011 87.7576 42.8011C88.0275 42.8011 88.2647 42.9006 88.4693 43.0994C88.6738 43.2983 88.7775 43.5369 88.7803 43.8153C88.7775 44.0028 88.7278 44.1747 88.6312 44.331C88.5374 44.4844 88.4139 44.608 88.2604 44.7017C88.107 44.7926 87.9394 44.8381 87.7576 44.8381Z" fill="#333333" fill-opacity="0.67"/>
<rect width="153.384" height="38" rx="19" transform="matrix(-1 0 0 1 158.862 146.777)" fill="#E3E3E5"/>
<path d="M7.44501 176.692C7.44501 172.794 6.35928 165.777 6.35928 165.777L17.2166 182.54C11.2853 187.069 7.13205 188.517 3.8147e-06 188.777C3.10125 185.614 7.44501 180.59 7.44501 176.692Z" fill="#E2E1E6"/>
<path d="M22.451 170.669L19.9538 161.942H21.9694L23.414 168.006H23.4865L25.0802 161.942H26.8061L28.3956 168.019H28.4723L29.9169 161.942H31.9325L29.4354 170.669H27.6371L25.9751 164.963H25.9069L24.2493 170.669H22.451ZM34.0493 170.793C33.6317 170.793 33.2596 170.721 32.9329 170.576C32.6062 170.428 32.3476 170.211 32.1573 169.924C31.9698 169.634 31.876 169.273 31.876 168.841C31.876 168.478 31.9428 168.172 32.0763 167.925C32.2099 167.678 32.3917 167.479 32.6218 167.329C32.8519 167.178 33.1133 167.064 33.4059 166.988C33.7013 166.911 34.011 166.857 34.3349 166.826C34.7155 166.786 35.0224 166.749 35.2553 166.715C35.4883 166.678 35.6573 166.624 35.7624 166.553C35.8675 166.482 35.9201 166.377 35.9201 166.238V166.212C35.9201 165.942 35.8349 165.733 35.6644 165.586C35.4968 165.438 35.2582 165.364 34.9485 165.364C34.6218 165.364 34.3618 165.436 34.1687 165.581C33.9755 165.723 33.8476 165.902 33.7851 166.118L32.1062 165.982C32.1914 165.584 32.359 165.24 32.609 164.951C32.859 164.658 33.1814 164.434 33.5763 164.277C33.9741 164.118 34.4343 164.039 34.957 164.039C35.3207 164.039 35.6687 164.081 36.001 164.167C36.3363 164.252 36.6332 164.384 36.8917 164.563C37.153 164.742 37.359 164.972 37.5096 165.253C37.6601 165.532 37.7354 165.865 37.7354 166.255V170.669H36.0138V169.762H35.9627C35.8576 169.966 35.717 170.147 35.5408 170.303C35.3647 170.456 35.153 170.577 34.9059 170.665C34.6587 170.75 34.3732 170.793 34.0493 170.793ZM34.5692 169.54C34.8363 169.54 35.0721 169.488 35.2766 169.382C35.4812 169.275 35.6417 169.13 35.7582 168.948C35.8746 168.766 35.9329 168.56 35.9329 168.33V167.635C35.876 167.672 35.7979 167.706 35.6985 167.738C35.6019 167.766 35.4925 167.793 35.3704 167.819C35.2482 167.841 35.126 167.863 35.0039 167.882C34.8817 167.9 34.7709 167.915 34.6715 167.929C34.4584 167.961 34.2724 168.01 34.1133 168.079C33.9542 168.147 33.8306 168.239 33.7425 168.356C33.6545 168.469 33.6104 168.611 33.6104 168.782C33.6104 169.029 33.6999 169.218 33.8789 169.348C34.0607 169.476 34.2908 169.54 34.5692 169.54ZM40.9591 166.885V170.669H39.1438V164.124H40.8739V165.279H40.9506C41.0955 164.898 41.3384 164.597 41.6793 164.375C42.0202 164.151 42.4336 164.039 42.9194 164.039C43.3739 164.039 43.7702 164.138 44.1083 164.337C44.4464 164.536 44.7091 164.82 44.8966 165.189C45.0841 165.556 45.1779 165.993 45.1779 166.502V170.669H43.3626V166.826C43.3654 166.425 43.2631 166.113 43.0557 165.888C42.8483 165.661 42.5628 165.547 42.1992 165.547C41.9549 165.547 41.739 165.6 41.5515 165.705C41.3668 165.81 41.2219 165.963 41.1168 166.165C41.0145 166.364 40.962 166.604 40.9591 166.885ZM48.424 166.885V170.669H46.6086V164.124H48.3388V165.279H48.4155C48.5604 164.898 48.8033 164.597 49.1442 164.375C49.4851 164.151 49.8984 164.039 50.3842 164.039C50.8388 164.039 51.2351 164.138 51.5731 164.337C51.9112 164.536 52.174 164.82 52.3615 165.189C52.549 165.556 52.6427 165.993 52.6427 166.502V170.669H50.8274V166.826C50.8302 166.425 50.728 166.113 50.5206 165.888C50.3132 165.661 50.0277 165.547 49.664 165.547C49.4197 165.547 49.2038 165.6 49.0163 165.705C48.8317 165.81 48.6868 165.963 48.5817 166.165C48.4794 166.364 48.4268 166.604 48.424 166.885ZM55.94 170.793C55.5224 170.793 55.1502 170.721 54.8235 170.576C54.4968 170.428 54.2383 170.211 54.0479 169.924C53.8604 169.634 53.7667 169.273 53.7667 168.841C53.7667 168.478 53.8334 168.172 53.967 167.925C54.1005 167.678 54.2823 167.479 54.5124 167.329C54.7425 167.178 55.0039 167.064 55.2965 166.988C55.592 166.911 55.9016 166.857 56.2255 166.826C56.6062 166.786 56.913 166.749 57.1459 166.715C57.3789 166.678 57.5479 166.624 57.653 166.553C57.7582 166.482 57.8107 166.377 57.8107 166.238V166.212C57.8107 165.942 57.7255 165.733 57.555 165.586C57.3874 165.438 57.1488 165.364 56.8391 165.364C56.5124 165.364 56.2525 165.436 56.0593 165.581C55.8661 165.723 55.7383 165.902 55.6758 166.118L53.9968 165.982C54.082 165.584 54.2496 165.24 54.4996 164.951C54.7496 164.658 55.0721 164.434 55.467 164.277C55.8647 164.118 56.3249 164.039 56.8476 164.039C57.2113 164.039 57.5593 164.081 57.8917 164.167C58.2269 164.252 58.5238 164.384 58.7823 164.563C59.0437 164.742 59.2496 164.972 59.4002 165.253C59.5508 165.532 59.626 165.865 59.626 166.255V170.669H57.9045V169.762H57.8533C57.7482 169.966 57.6076 170.147 57.4314 170.303C57.2553 170.456 57.0437 170.577 56.7965 170.665C56.5493 170.75 56.2638 170.793 55.94 170.793ZM56.4599 169.54C56.7269 169.54 56.9627 169.488 57.1672 169.382C57.3718 169.275 57.5323 169.13 57.6488 168.948C57.7653 168.766 57.8235 168.56 57.8235 168.33V167.635C57.7667 167.672 57.6885 167.706 57.5891 167.738C57.4925 167.766 57.3832 167.793 57.261 167.819C57.1388 167.841 57.0167 167.863 56.8945 167.882C56.7724 167.9 56.6616 167.915 56.5621 167.929C56.3491 167.961 56.163 168.01 56.0039 168.079C55.8448 168.147 55.7212 168.239 55.6332 168.356C55.5451 168.469 55.501 168.611 55.501 168.782C55.501 169.029 55.5905 169.218 55.7695 169.348C55.9513 169.476 56.1814 169.54 56.4599 169.54ZM65.6271 166.885V170.669H63.8118V161.942H65.576V165.279H65.6527C65.8004 164.892 66.039 164.59 66.3686 164.371C66.6981 164.15 67.1115 164.039 67.6086 164.039C68.0632 164.039 68.4595 164.138 68.7976 164.337C69.1385 164.533 69.4027 164.816 69.5902 165.185C69.7805 165.552 69.8743 165.99 69.8714 166.502V170.669H68.0561V166.826C68.0589 166.422 67.9567 166.108 67.7493 165.884C67.5447 165.659 67.2578 165.547 66.8885 165.547C66.6413 165.547 66.4226 165.6 66.2322 165.705C66.0447 165.81 65.897 165.963 65.789 166.165C65.6839 166.364 65.63 166.604 65.6271 166.885ZM73.1665 170.793C72.7489 170.793 72.3768 170.721 72.0501 170.576C71.7233 170.428 71.4648 170.211 71.2745 169.924C71.087 169.634 70.9932 169.273 70.9932 168.841C70.9932 168.478 71.06 168.172 71.1935 167.925C71.327 167.678 71.5089 167.479 71.739 167.329C71.9691 167.178 72.2305 167.064 72.5231 166.988C72.8185 166.911 73.1282 166.857 73.452 166.826C73.8327 166.786 74.1395 166.749 74.3725 166.715C74.6055 166.678 74.7745 166.624 74.8796 166.553C74.9847 166.482 75.0373 166.377 75.0373 166.238V166.212C75.0373 165.942 74.952 165.733 74.7816 165.586C74.614 165.438 74.3753 165.364 74.0657 165.364C73.739 165.364 73.479 165.436 73.2858 165.581C73.0927 165.723 72.9648 165.902 72.9023 166.118L71.2233 165.982C71.3086 165.584 71.4762 165.24 71.7262 164.951C71.9762 164.658 72.2986 164.434 72.6935 164.277C73.0912 164.118 73.5515 164.039 74.0742 164.039C74.4378 164.039 74.7858 164.081 75.1182 164.167C75.4535 164.252 75.7503 164.384 76.0089 164.563C76.2702 164.742 76.4762 164.972 76.6268 165.253C76.7773 165.532 76.8526 165.865 76.8526 166.255V170.669H75.131V169.762H75.0799C74.9748 169.966 74.8341 170.147 74.658 170.303C74.4819 170.456 74.2702 170.577 74.0231 170.665C73.7759 170.75 73.4904 170.793 73.1665 170.793ZM73.6864 169.54C73.9535 169.54 74.1893 169.488 74.3938 169.382C74.5983 169.275 74.7589 169.13 74.8753 168.948C74.9918 168.766 75.0501 168.56 75.0501 168.33V167.635C74.9932 167.672 74.9151 167.706 74.8157 167.738C74.7191 167.766 74.6097 167.793 74.4876 167.819C74.3654 167.841 74.2432 167.863 74.1211 167.882C73.9989 167.9 73.8881 167.915 73.7887 167.929C73.5756 167.961 73.3895 168.01 73.2305 168.079C73.0714 168.147 72.9478 168.239 72.8597 168.356C72.7716 168.469 72.7276 168.611 72.7276 168.782C72.7276 169.029 72.8171 169.218 72.9961 169.348C73.1779 169.476 73.408 169.54 73.6864 169.54ZM84.1289 164.124L81.8405 170.669H79.7951L77.5067 164.124H79.4243L80.7837 168.807H80.8519L82.207 164.124H84.1289ZM87.8299 170.797C87.1566 170.797 86.577 170.661 86.0912 170.388C85.6083 170.113 85.2361 169.723 84.9748 169.221C84.7134 168.715 84.5827 168.117 84.5827 167.427C84.5827 166.753 84.7134 166.162 84.9748 165.654C85.2361 165.145 85.604 164.749 86.0785 164.465C86.5557 164.181 87.1154 164.039 87.7574 164.039C88.1893 164.039 88.5912 164.108 88.9634 164.248C89.3384 164.384 89.6651 164.59 89.9435 164.865C90.2248 165.141 90.4435 165.488 90.5998 165.905C90.756 166.32 90.8341 166.806 90.8341 167.363V167.861H85.3072V166.736H89.1253C89.1253 166.475 89.0685 166.243 88.9549 166.042C88.8412 165.84 88.6836 165.682 88.4819 165.569C88.283 165.452 88.0515 165.394 87.7873 165.394C87.5117 165.394 87.2674 165.458 87.0543 165.586C86.8441 165.711 86.6793 165.88 86.56 166.093C86.4407 166.303 86.3796 166.537 86.3768 166.796V167.865C86.3768 168.189 86.4364 168.469 86.5557 168.705C86.6779 168.941 86.8498 169.123 87.0714 169.25C87.293 169.378 87.5557 169.442 87.8597 169.442C88.0614 169.442 88.2461 169.414 88.4137 169.357C88.5813 169.3 88.7248 169.215 88.8441 169.101C88.9634 168.988 89.0543 168.848 89.1168 168.684L90.7958 168.794C90.7106 169.198 90.5359 169.55 90.2716 169.851C90.0103 170.15 89.6722 170.382 89.2574 170.55C88.8455 170.715 88.3697 170.797 87.8299 170.797ZM96.6626 170.793C96.245 170.793 95.8729 170.721 95.5461 170.576C95.2194 170.428 94.9609 170.211 94.7706 169.924C94.5831 169.634 94.4893 169.273 94.4893 168.841C94.4893 168.478 94.5561 168.172 94.6896 167.925C94.8231 167.678 95.005 167.479 95.2351 167.329C95.4652 167.178 95.7265 167.064 96.0192 166.988C96.3146 166.911 96.6243 166.857 96.9481 166.826C97.3288 166.786 97.6356 166.749 97.8686 166.715C98.1015 166.678 98.2706 166.624 98.3757 166.553C98.4808 166.482 98.5334 166.377 98.5334 166.238V166.212C98.5334 165.942 98.4481 165.733 98.2777 165.586C98.1101 165.438 97.8714 165.364 97.5618 165.364C97.2351 165.364 96.9751 165.436 96.7819 165.581C96.5888 165.723 96.4609 165.902 96.3984 166.118L94.7194 165.982C94.8047 165.584 94.9723 165.24 95.2223 164.951C95.4723 164.658 95.7947 164.434 96.1896 164.277C96.5873 164.118 97.0476 164.039 97.5703 164.039C97.9339 164.039 98.2819 164.081 98.6143 164.167C98.9496 164.252 99.2464 164.384 99.505 164.563C99.7663 164.742 99.9723 164.972 100.123 165.253C100.273 165.532 100.349 165.865 100.349 166.255V170.669H98.6271V169.762H98.576C98.4709 169.966 98.3302 170.147 98.1541 170.303C97.978 170.456 97.7663 170.577 97.5192 170.665C97.272 170.75 96.9865 170.793 96.6626 170.793ZM97.1825 169.54C97.4496 169.54 97.6854 169.488 97.8899 169.382C98.0944 169.275 98.255 169.13 98.3714 168.948C98.4879 168.766 98.5461 168.56 98.5461 168.33V167.635C98.4893 167.672 98.4112 167.706 98.3118 167.738C98.2152 167.766 98.1058 167.793 97.9836 167.819C97.8615 167.841 97.7393 167.863 97.6172 167.882C97.495 167.9 97.3842 167.915 97.2848 167.929C97.0717 167.961 96.8856 168.01 96.7265 168.079C96.5675 168.147 96.4439 168.239 96.3558 168.356C96.2677 168.469 96.2237 168.611 96.2237 168.782C96.2237 169.029 96.3132 169.218 96.4922 169.348C96.674 169.476 96.9041 169.54 97.1825 169.54ZM107.492 170.797C106.821 170.797 106.245 170.655 105.762 170.371C105.282 170.084 104.912 169.686 104.654 169.178C104.398 168.669 104.27 168.084 104.27 167.422C104.27 166.752 104.399 166.164 104.658 165.658C104.919 165.15 105.29 164.753 105.77 164.469C106.25 164.182 106.821 164.039 107.483 164.039C108.054 164.039 108.554 164.142 108.983 164.35C109.412 164.557 109.752 164.848 110.002 165.223C110.252 165.598 110.39 166.039 110.415 166.544H108.702C108.654 166.218 108.526 165.955 108.319 165.756C108.114 165.554 107.846 165.454 107.513 165.454C107.232 165.454 106.986 165.53 106.776 165.684C106.569 165.834 106.407 166.054 106.29 166.344C106.174 166.634 106.115 166.985 106.115 167.397C106.115 167.814 106.172 168.169 106.286 168.462C106.402 168.755 106.566 168.978 106.776 169.131C106.986 169.284 107.232 169.361 107.513 169.361C107.721 169.361 107.907 169.319 108.071 169.233C108.239 169.148 108.377 169.025 108.485 168.863C108.596 168.698 108.668 168.5 108.702 168.27H110.415C110.387 168.77 110.25 169.211 110.006 169.591C109.765 169.969 109.431 170.265 109.005 170.478C108.578 170.691 108.074 170.797 107.492 170.797ZM113.393 166.885V170.669H111.577V161.942H113.342V165.279H113.418C113.566 164.892 113.805 164.59 114.134 164.371C114.464 164.15 114.877 164.039 115.374 164.039C115.829 164.039 116.225 164.138 116.563 164.337C116.904 164.533 117.168 164.816 117.356 165.185C117.546 165.552 117.64 165.99 117.637 166.502V170.669H115.822V166.826C115.825 166.422 115.722 166.108 115.515 165.884C115.31 165.659 115.023 165.547 114.654 165.547C114.407 165.547 114.188 165.6 113.998 165.705C113.81 165.81 113.663 165.963 113.555 166.165C113.45 166.364 113.396 166.604 113.393 166.885ZM120.932 170.793C120.515 170.793 120.142 170.721 119.816 170.576C119.489 170.428 119.23 170.211 119.04 169.924C118.853 169.634 118.759 169.273 118.759 168.841C118.759 168.478 118.826 168.172 118.959 167.925C119.093 167.678 119.274 167.479 119.505 167.329C119.735 167.178 119.996 167.064 120.289 166.988C120.584 166.911 120.894 166.857 121.218 166.826C121.598 166.786 121.905 166.749 122.138 166.715C122.371 166.678 122.54 166.624 122.645 166.553C122.75 166.482 122.803 166.377 122.803 166.238V166.212C122.803 165.942 122.718 165.733 122.547 165.586C122.38 165.438 122.141 165.364 121.831 165.364C121.505 165.364 121.245 165.436 121.051 165.581C120.858 165.723 120.73 165.902 120.668 166.118L118.989 165.982C119.074 165.584 119.242 165.24 119.492 164.951C119.742 164.658 120.064 164.434 120.459 164.277C120.857 164.118 121.317 164.039 121.84 164.039C122.203 164.039 122.551 164.081 122.884 164.167C123.219 164.252 123.516 164.384 123.774 164.563C124.036 164.742 124.242 164.972 124.392 165.253C124.543 165.532 124.618 165.865 124.618 166.255V170.669H122.897V169.762H122.846C122.74 169.966 122.6 170.147 122.424 170.303C122.247 170.456 122.036 170.577 121.789 170.665C121.542 170.75 121.256 170.793 120.932 170.793ZM121.452 169.54C121.719 169.54 121.955 169.488 122.159 169.382C122.364 169.275 122.524 169.13 122.641 168.948C122.757 168.766 122.816 168.56 122.816 168.33V167.635C122.759 167.672 122.681 167.706 122.581 167.738C122.485 167.766 122.375 167.793 122.253 167.819C122.131 167.841 122.009 167.863 121.887 167.882C121.765 167.9 121.654 167.915 121.554 167.929C121.341 167.961 121.155 168.01 120.996 168.079C120.837 168.147 120.713 168.239 120.625 168.356C120.537 168.469 120.493 168.611 120.493 168.782C120.493 169.029 120.583 169.218 120.762 169.348C120.944 169.476 121.174 169.54 121.452 169.54ZM129.508 164.124V165.488H125.566V164.124H129.508ZM126.461 162.556H128.277V168.658C128.277 168.826 128.302 168.956 128.353 169.05C128.404 169.141 128.475 169.205 128.566 169.242C128.66 169.279 128.768 169.297 128.89 169.297C128.975 169.297 129.061 169.29 129.146 169.276C129.231 169.259 129.297 169.246 129.342 169.238L129.627 170.588C129.537 170.617 129.409 170.65 129.244 170.686C129.079 170.726 128.879 170.75 128.643 170.759C128.206 170.776 127.822 170.718 127.493 170.584C127.166 170.451 126.912 170.243 126.73 169.962C126.548 169.681 126.458 169.326 126.461 168.897V162.556ZM132.25 168.053V167.908C132.253 167.411 132.297 167.015 132.382 166.719C132.471 166.424 132.598 166.185 132.766 166.003C132.934 165.821 133.135 165.657 133.371 165.509C133.547 165.395 133.705 165.277 133.844 165.155C133.983 165.033 134.094 164.898 134.176 164.75C134.259 164.6 134.3 164.432 134.3 164.248C134.3 164.052 134.253 163.88 134.159 163.732C134.066 163.584 133.939 163.471 133.78 163.391C133.624 163.311 133.451 163.272 133.26 163.272C133.076 163.272 132.901 163.313 132.736 163.395C132.571 163.475 132.436 163.594 132.331 163.753C132.226 163.909 132.169 164.104 132.161 164.337H130.422C130.436 163.769 130.573 163.3 130.831 162.931C131.09 162.559 131.432 162.282 131.858 162.1C132.284 161.915 132.755 161.823 133.269 161.823C133.834 161.823 134.334 161.917 134.769 162.104C135.203 162.289 135.544 162.557 135.792 162.909C136.039 163.262 136.162 163.686 136.162 164.184C136.162 164.516 136.107 164.811 135.996 165.07C135.888 165.326 135.736 165.553 135.54 165.752C135.344 165.948 135.113 166.125 134.846 166.284C134.621 166.418 134.436 166.557 134.292 166.702C134.149 166.847 134.043 167.015 133.972 167.205C133.904 167.395 133.868 167.63 133.865 167.908V168.053H132.25ZM133.094 170.78C132.81 170.78 132.567 170.681 132.365 170.482C132.167 170.28 132.069 170.039 132.071 169.757C132.069 169.479 132.167 169.24 132.365 169.042C132.567 168.843 132.81 168.743 133.094 168.743C133.364 168.743 133.601 168.843 133.806 169.042C134.01 169.24 134.114 169.479 134.117 169.757C134.114 169.945 134.064 170.117 133.968 170.273C133.874 170.427 133.75 170.55 133.597 170.644C133.444 170.735 133.276 170.78 133.094 170.78Z" fill="#333333" fill-opacity="0.67"/>
<rect width="211.53" height="38" rx="19" transform="matrix(-1 0 0 1 219.084 198.347)" fill="#E3E3E5"/>
<path d="M10.2673 228.262C10.2673 224.364 8.76998 217.347 8.76998 217.347L23.7431 234.11C15.5634 238.639 9.8357 240.088 0 240.347C4.27688 237.184 10.2673 232.161 10.2673 228.262Z" fill="#E2E1E6"/>
<path d="M20.4865 222.256V213.529H26.2649V215.05H22.3317V217.13H25.8814V218.651H22.3317V222.256H20.4865ZM29.9744 222.384C29.3011 222.384 28.7216 222.248 28.2358 221.975C27.7528 221.699 27.3807 221.31 27.1193 220.807C26.8579 220.302 26.7273 219.704 26.7273 219.013C26.7273 218.34 26.8579 217.749 27.1193 217.241C27.3807 216.732 27.7486 216.336 28.223 216.052C28.7003 215.768 29.2599 215.626 29.902 215.626C30.3338 215.626 30.7358 215.695 31.1079 215.834C31.4829 215.971 31.8096 216.177 32.0881 216.452C32.3693 216.728 32.5881 217.074 32.7443 217.492C32.9006 217.907 32.9787 218.393 32.9787 218.949V219.448H27.4517V218.323H31.2699C31.2699 218.062 31.2131 217.83 31.0994 217.628C30.9858 217.427 30.8281 217.269 30.6264 217.155C30.4275 217.039 30.196 216.981 29.9318 216.981C29.6562 216.981 29.4119 217.045 29.1988 217.172C28.9886 217.297 28.8238 217.466 28.7045 217.679C28.5852 217.89 28.5241 218.124 28.5213 218.383V219.452C28.5213 219.776 28.5809 220.056 28.7003 220.292C28.8224 220.528 28.9943 220.709 29.2159 220.837C29.4375 220.965 29.7003 221.029 30.0042 221.029C30.2059 221.029 30.3906 221.001 30.5582 220.944C30.7258 220.887 30.8693 220.802 30.9886 220.688C31.1079 220.574 31.1988 220.435 31.2613 220.27L32.9403 220.381C32.8551 220.785 32.6804 221.137 32.4162 221.438C32.1548 221.736 31.8167 221.969 31.402 222.137C30.99 222.302 30.5142 222.384 29.9744 222.384ZM37.1463 222.384C36.473 222.384 35.8934 222.248 35.4077 221.975C34.9247 221.699 34.5525 221.31 34.2912 220.807C34.0298 220.302 33.8991 219.704 33.8991 219.013C33.8991 218.34 34.0298 217.749 34.2912 217.241C34.5525 216.732 34.9204 216.336 35.3949 216.052C35.8721 215.768 36.4318 215.626 37.0738 215.626C37.5057 215.626 37.9077 215.695 38.2798 215.834C38.6548 215.971 38.9815 216.177 39.2599 216.452C39.5412 216.728 39.7599 217.074 39.9162 217.492C40.0724 217.907 40.1506 218.393 40.1506 218.949V219.448H34.6236V218.323H38.4417C38.4417 218.062 38.3849 217.83 38.2713 217.628C38.1577 217.427 38 217.269 37.7983 217.155C37.5994 217.039 37.3679 216.981 37.1037 216.981C36.8281 216.981 36.5838 217.045 36.3707 217.172C36.1605 217.297 35.9957 217.466 35.8764 217.679C35.7571 217.89 35.696 218.124 35.6932 218.383V219.452C35.6932 219.776 35.7528 220.056 35.8721 220.292C35.9943 220.528 36.1662 220.709 36.3878 220.837C36.6094 220.965 36.8721 221.029 37.1761 221.029C37.3778 221.029 37.5625 221.001 37.7301 220.944C37.8977 220.887 38.0412 220.802 38.1605 220.688C38.2798 220.574 38.3707 220.435 38.4332 220.27L40.1122 220.381C40.027 220.785 39.8523 221.137 39.5881 221.438C39.3267 221.736 38.9886 221.969 38.5738 222.137C38.1619 222.302 37.6861 222.384 37.1463 222.384ZM43.1506 213.529V222.256H41.3352V213.529H43.1506ZM50.902 215.711V217.074H46.8622V215.711H50.902ZM47.7869 222.256V215.238C47.7869 214.763 47.8792 214.37 48.0639 214.057C48.2514 213.745 48.5071 213.51 48.8309 213.354C49.1548 213.198 49.5227 213.12 49.9346 213.12C50.2131 213.12 50.4673 213.141 50.6974 213.184C50.9304 213.226 51.1037 213.265 51.2173 213.299L50.8934 214.662C50.8224 214.64 50.7344 214.618 50.6292 214.599C50.527 214.579 50.4219 214.569 50.3139 214.569C50.0469 214.569 49.8608 214.631 49.7557 214.756C49.6506 214.878 49.598 215.05 49.598 215.272V222.256H47.7869ZM52.011 222.256V215.711H53.7709V216.853H53.8391C53.9584 216.447 54.1587 216.14 54.44 215.932C54.7212 215.722 55.0451 215.617 55.4116 215.617C55.5025 215.617 55.6005 215.623 55.7056 215.634C55.8107 215.645 55.903 215.661 55.9826 215.681V217.292C55.8974 217.266 55.7795 217.243 55.6289 217.224C55.4783 217.204 55.3405 217.194 55.2155 217.194C54.9485 217.194 54.7099 217.252 54.4996 217.368C54.2922 217.482 54.1275 217.641 54.0053 217.846C53.886 218.05 53.8263 218.286 53.8263 218.553V222.256H52.011ZM59.5994 222.384C58.9261 222.384 58.3466 222.248 57.8608 221.975C57.3778 221.699 57.0057 221.31 56.7443 220.807C56.4829 220.302 56.3523 219.704 56.3523 219.013C56.3523 218.34 56.4829 217.749 56.7443 217.241C57.0057 216.732 57.3736 216.336 57.848 216.052C58.3253 215.768 58.8849 215.626 59.527 215.626C59.9588 215.626 60.3608 215.695 60.7329 215.834C61.1079 215.971 61.4346 216.177 61.7131 216.452C61.9943 216.728 62.2131 217.074 62.3693 217.492C62.5256 217.907 62.6037 218.393 62.6037 218.949V219.448H57.0767V218.323H60.8949C60.8949 218.062 60.8381 217.83 60.7244 217.628C60.6108 217.427 60.4531 217.269 60.2514 217.155C60.0525 217.039 59.821 216.981 59.5568 216.981C59.2812 216.981 59.0369 217.045 58.8238 217.172C58.6136 217.297 58.4488 217.466 58.3295 217.679C58.2102 217.89 58.1491 218.124 58.1463 218.383V219.452C58.1463 219.776 58.2059 220.056 58.3253 220.292C58.4474 220.528 58.6193 220.709 58.8409 220.837C59.0625 220.965 59.3253 221.029 59.6292 221.029C59.8309 221.029 60.0156 221.001 60.1832 220.944C60.3508 220.887 60.4943 220.802 60.6136 220.688C60.7329 220.574 60.8238 220.435 60.8863 220.27L62.5653 220.381C62.4801 220.785 62.3054 221.137 62.0412 221.438C61.7798 221.736 61.4417 221.969 61.027 222.137C60.615 222.302 60.1392 222.384 59.5994 222.384ZM66.7713 222.384C66.098 222.384 65.5184 222.248 65.0327 221.975C64.5497 221.699 64.1775 221.31 63.9162 220.807C63.6548 220.302 63.5241 219.704 63.5241 219.013C63.5241 218.34 63.6548 217.749 63.9162 217.241C64.1775 216.732 64.5454 216.336 65.0199 216.052C65.4971 215.768 66.0568 215.626 66.6988 215.626C67.1307 215.626 67.5327 215.695 67.9048 215.834C68.2798 215.971 68.6065 216.177 68.8849 216.452C69.1662 216.728 69.3849 217.074 69.5412 217.492C69.6974 217.907 69.7756 218.393 69.7756 218.949V219.448H64.2486V218.323H68.0667C68.0667 218.062 68.0099 217.83 67.8963 217.628C67.7827 217.427 67.625 217.269 67.4233 217.155C67.2244 217.039 66.9929 216.981 66.7287 216.981C66.4531 216.981 66.2088 217.045 65.9957 217.172C65.7855 217.297 65.6207 217.466 65.5014 217.679C65.3821 217.89 65.321 218.124 65.3182 218.383V219.452C65.3182 219.776 65.3778 220.056 65.4971 220.292C65.6193 220.528 65.7912 220.709 66.0128 220.837C66.2344 220.965 66.4971 221.029 66.8011 221.029C67.0028 221.029 67.1875 221.001 67.3551 220.944C67.5227 220.887 67.6662 220.802 67.7855 220.688C67.9048 220.574 67.9957 220.435 68.0582 220.27L69.7372 220.381C69.652 220.785 69.4773 221.137 69.2131 221.438C68.9517 221.736 68.6136 221.969 68.1988 222.137C67.7869 222.302 67.3111 222.384 66.7713 222.384ZM77.2191 215.711V217.074H73.2773V215.711H77.2191ZM74.1722 214.143H75.9876V220.245C75.9876 220.412 76.0131 220.543 76.0643 220.637C76.1154 220.728 76.1864 220.792 76.2773 220.829C76.3711 220.866 76.479 220.884 76.6012 220.884C76.6864 220.884 76.7716 220.877 76.8569 220.863C76.9421 220.846 77.0074 220.833 77.0529 220.824L77.3384 222.175C77.2475 222.204 77.1197 222.236 76.9549 222.273C76.7901 222.313 76.5898 222.337 76.354 222.346C75.9165 222.363 75.533 222.304 75.2035 222.171C74.8768 222.037 74.6225 221.83 74.4407 221.549C74.2589 221.268 74.1694 220.912 74.1722 220.483V214.143ZM81.2887 222.384C80.6268 222.384 80.0543 222.243 79.5714 221.962C79.0912 221.678 78.7205 221.283 78.4591 220.778C78.1978 220.269 78.0671 219.679 78.0671 219.009C78.0671 218.333 78.1978 217.742 78.4591 217.236C78.7205 216.728 79.0912 216.333 79.5714 216.052C80.0543 215.768 80.6268 215.626 81.2887 215.626C81.9506 215.626 82.5216 215.768 83.0018 216.052C83.4847 216.333 83.8569 216.728 84.1182 217.236C84.3796 217.742 84.5103 218.333 84.5103 219.009C84.5103 219.679 84.3796 220.269 84.1182 220.778C83.8569 221.283 83.4847 221.678 83.0018 221.962C82.5216 222.243 81.9506 222.384 81.2887 222.384ZM81.2972 220.978C81.5983 220.978 81.8498 220.893 82.0515 220.722C82.2532 220.549 82.4052 220.313 82.5074 220.015C82.6126 219.716 82.6651 219.377 82.6651 218.996C82.6651 218.616 82.6126 218.276 82.5074 217.978C82.4052 217.679 82.2532 217.444 82.0515 217.27C81.8498 217.097 81.5983 217.01 81.2972 217.01C80.9932 217.01 80.7376 217.097 80.5302 217.27C80.3256 217.444 80.1708 217.679 80.0657 217.978C79.9634 218.276 79.9123 218.616 79.9123 218.996C79.9123 219.377 79.9634 219.716 80.0657 220.015C80.1708 220.313 80.3256 220.549 80.5302 220.722C80.7376 220.893 80.9932 220.978 81.2972 220.978ZM93.914 217.577L92.2521 217.679C92.2237 217.537 92.1626 217.41 92.0689 217.296C91.9751 217.179 91.8515 217.087 91.6981 217.019C91.5476 216.948 91.3672 216.912 91.1569 216.912C90.8757 216.912 90.6385 216.972 90.4453 217.091C90.2521 217.208 90.1555 217.364 90.1555 217.56C90.1555 217.716 90.218 217.849 90.343 217.956C90.468 218.064 90.6825 218.151 90.9865 218.216L92.1711 218.455C92.8075 218.586 93.2819 218.796 93.5944 219.086C93.9069 219.376 94.0632 219.756 94.0632 220.228C94.0632 220.657 93.9368 221.033 93.6839 221.357C93.4339 221.681 93.0902 221.934 92.6527 222.116C92.218 222.295 91.7166 222.384 91.1484 222.384C90.2819 222.384 89.5916 222.204 89.0774 221.843C88.566 221.479 88.2663 220.985 88.1783 220.36L89.9638 220.266C90.0177 220.53 90.1484 220.732 90.3558 220.871C90.5632 221.008 90.8288 221.076 91.1527 221.076C91.4709 221.076 91.7265 221.015 91.9197 220.893C92.1158 220.768 92.2152 220.607 92.218 220.411C92.2152 220.246 92.1456 220.111 92.0092 220.006C91.8729 219.898 91.6626 219.816 91.3785 219.759L90.245 219.533C89.6058 219.405 89.13 219.184 88.8175 218.868C88.5078 218.553 88.353 218.151 88.353 217.662C88.353 217.242 88.4666 216.88 88.6939 216.576C88.924 216.272 89.2464 216.037 89.6612 215.873C90.0788 215.708 90.5675 215.626 91.1271 215.626C91.9538 215.626 92.6044 215.8 93.0788 216.15C93.5561 216.499 93.8345 216.975 93.914 217.577ZM97.0216 218.472V222.256H95.2063V213.529H96.9705V216.866H97.0472C97.1949 216.479 97.4336 216.177 97.7631 215.958C98.0927 215.736 98.506 215.626 99.0032 215.626C99.4577 215.626 99.854 215.725 100.192 215.924C100.533 216.12 100.797 216.403 100.985 216.772C101.175 217.138 101.269 217.577 101.266 218.089V222.256H99.4506V218.412C99.4535 218.009 99.3512 217.695 99.1438 217.471C98.9393 217.246 98.6523 217.134 98.283 217.134C98.0359 217.134 97.8171 217.187 97.6268 217.292C97.4393 217.397 97.2915 217.55 97.1836 217.752C97.0785 217.951 97.0245 218.191 97.0216 218.472ZM105.652 222.384C104.99 222.384 104.418 222.243 103.935 221.962C103.455 221.678 103.084 221.283 102.822 220.778C102.561 220.269 102.43 219.679 102.43 219.009C102.43 218.333 102.561 217.742 102.822 217.236C103.084 216.728 103.455 216.333 103.935 216.052C104.418 215.768 104.99 215.626 105.652 215.626C106.314 215.626 106.885 215.768 107.365 216.052C107.848 216.333 108.22 216.728 108.482 217.236C108.743 217.742 108.874 218.333 108.874 219.009C108.874 219.679 108.743 220.269 108.482 220.778C108.22 221.283 107.848 221.678 107.365 221.962C106.885 222.243 106.314 222.384 105.652 222.384ZM105.66 220.978C105.962 220.978 106.213 220.893 106.415 220.722C106.616 220.549 106.768 220.313 106.871 220.015C106.976 219.716 107.028 219.377 107.028 218.996C107.028 218.616 106.976 218.276 106.871 217.978C106.768 217.679 106.616 217.444 106.415 217.27C106.213 217.097 105.962 217.01 105.66 217.01C105.357 217.01 105.101 217.097 104.893 217.27C104.689 217.444 104.534 217.679 104.429 217.978C104.327 218.276 104.276 218.616 104.276 218.996C104.276 219.377 104.327 219.716 104.429 220.015C104.534 220.313 104.689 220.549 104.893 220.722C105.101 220.893 105.357 220.978 105.66 220.978ZM113.011 222.384C112.349 222.384 111.777 222.243 111.294 221.962C110.814 221.678 110.443 221.283 110.182 220.778C109.92 220.269 109.79 219.679 109.79 219.009C109.79 218.333 109.92 217.742 110.182 217.236C110.443 216.728 110.814 216.333 111.294 216.052C111.777 215.768 112.349 215.626 113.011 215.626C113.673 215.626 114.244 215.768 114.724 216.052C115.207 216.333 115.58 216.728 115.841 217.236C116.102 217.742 116.233 218.333 116.233 219.009C116.233 219.679 116.102 220.269 115.841 220.778C115.58 221.283 115.207 221.678 114.724 221.962C114.244 222.243 113.673 222.384 113.011 222.384ZM113.02 220.978C113.321 220.978 113.572 220.893 113.774 220.722C113.976 220.549 114.128 220.313 114.23 220.015C114.335 219.716 114.388 219.377 114.388 218.996C114.388 218.616 114.335 218.276 114.23 217.978C114.128 217.679 113.976 217.444 113.774 217.27C113.572 217.097 113.321 217.01 113.02 217.01C112.716 217.01 112.46 217.097 112.253 217.27C112.048 217.444 111.893 217.679 111.788 217.978C111.686 218.276 111.635 218.616 111.635 218.996C111.635 219.377 111.686 219.716 111.788 220.015C111.893 220.313 112.048 220.549 112.253 220.722C112.46 220.893 112.716 220.978 113.02 220.978ZM120.895 215.711V217.074H116.953V215.711H120.895ZM117.848 214.143H119.663V220.245C119.663 220.412 119.689 220.543 119.74 220.637C119.791 220.728 119.862 220.792 119.953 220.829C120.047 220.866 120.155 220.884 120.277 220.884C120.362 220.884 120.447 220.877 120.533 220.863C120.618 220.846 120.683 220.833 120.729 220.824L121.014 222.175C120.923 222.204 120.795 222.236 120.631 222.273C120.466 222.313 120.266 222.337 120.03 222.346C119.592 222.363 119.209 222.304 118.879 222.171C118.553 222.037 118.298 221.83 118.116 221.549C117.935 221.268 117.845 220.912 117.848 220.483V214.143ZM124.855 222.256V215.711H126.585V216.866H126.662C126.798 216.482 127.025 216.179 127.343 215.958C127.662 215.736 128.042 215.626 128.485 215.626C128.934 215.626 129.316 215.738 129.632 215.962C129.947 216.184 130.157 216.485 130.262 216.866H130.331C130.464 216.491 130.706 216.191 131.055 215.966C131.407 215.739 131.823 215.626 132.304 215.626C132.914 215.626 133.41 215.82 133.791 216.209C134.174 216.596 134.366 217.144 134.366 217.854V222.256H132.555V218.212C132.555 217.849 132.458 217.576 132.265 217.394C132.072 217.212 131.831 217.121 131.541 217.121C131.211 217.121 130.954 217.226 130.77 217.437C130.585 217.644 130.493 217.918 130.493 218.259V222.256H128.733V218.174C128.733 217.853 128.64 217.597 128.456 217.407C128.274 217.216 128.034 217.121 127.735 217.121C127.534 217.121 127.352 217.172 127.19 217.275C127.031 217.374 126.904 217.515 126.811 217.697C126.717 217.876 126.67 218.086 126.67 218.327V222.256H124.855ZM138.783 222.384C138.11 222.384 137.53 222.248 137.044 221.975C136.561 221.699 136.189 221.31 135.928 220.807C135.667 220.302 135.536 219.704 135.536 219.013C135.536 218.34 135.667 217.749 135.928 217.241C136.189 216.732 136.557 216.336 137.032 216.052C137.509 215.768 138.069 215.626 138.711 215.626C139.142 215.626 139.544 215.695 139.917 215.834C140.292 215.971 140.618 216.177 140.897 216.452C141.178 216.728 141.397 217.074 141.553 217.492C141.709 217.907 141.787 218.393 141.787 218.949V219.448H136.26V218.323H140.078C140.078 218.062 140.022 217.83 139.908 217.628C139.794 217.427 139.637 217.269 139.435 217.155C139.236 217.039 139.005 216.981 138.74 216.981C138.465 216.981 138.221 217.045 138.007 217.172C137.797 217.297 137.632 217.466 137.513 217.679C137.394 217.89 137.333 218.124 137.33 218.383V219.452C137.33 219.776 137.39 220.056 137.509 220.292C137.631 220.528 137.803 220.709 138.024 220.837C138.246 220.965 138.509 221.029 138.813 221.029C139.015 221.029 139.199 221.001 139.367 220.944C139.534 220.887 139.678 220.802 139.797 220.688C139.917 220.574 140.007 220.435 140.07 220.27L141.749 220.381C141.664 220.785 141.489 221.137 141.225 221.438C140.963 221.736 140.625 221.969 140.211 222.137C139.799 222.302 139.323 222.384 138.783 222.384ZM149.231 215.711V217.074H145.289V215.711H149.231ZM146.184 214.143H147.999V220.245C147.999 220.412 148.025 220.543 148.076 220.637C148.127 220.728 148.198 220.792 148.289 220.829C148.383 220.866 148.491 220.884 148.613 220.884C148.698 220.884 148.783 220.877 148.869 220.863C148.954 220.846 149.019 220.833 149.065 220.824L149.35 222.175C149.259 222.204 149.131 222.236 148.967 222.273C148.802 222.313 148.602 222.337 148.366 222.346C147.928 222.363 147.545 222.304 147.215 222.171C146.888 222.037 146.634 221.83 146.452 221.549C146.271 221.268 146.181 220.912 146.184 220.483V214.143ZM152.369 218.472V222.256H150.554V213.529H152.318V216.866H152.395C152.543 216.479 152.781 216.177 153.111 215.958C153.44 215.736 153.854 215.626 154.351 215.626C154.805 215.626 155.202 215.725 155.54 215.924C155.881 216.12 156.145 216.403 156.332 216.772C156.523 217.138 156.616 217.577 156.614 218.089V222.256H154.798V218.412C154.801 218.009 154.699 217.695 154.491 217.471C154.287 217.246 154 217.134 153.631 217.134C153.384 217.134 153.165 217.187 152.974 217.292C152.787 217.397 152.639 217.55 152.531 217.752C152.426 217.951 152.372 218.191 152.369 218.472ZM161.025 222.384C160.352 222.384 159.772 222.248 159.287 221.975C158.804 221.699 158.431 221.31 158.17 220.807C157.909 220.302 157.778 219.704 157.778 219.013C157.778 218.34 157.909 217.749 158.17 217.241C158.431 216.732 158.799 216.336 159.274 216.052C159.751 215.768 160.311 215.626 160.953 215.626C161.385 215.626 161.787 215.695 162.159 215.834C162.534 215.971 162.86 216.177 163.139 216.452C163.42 216.728 163.639 217.074 163.795 217.492C163.951 217.907 164.029 218.393 164.029 218.949V219.448H158.502V218.323H162.321C162.321 218.062 162.264 217.83 162.15 217.628C162.037 217.427 161.879 217.269 161.677 217.155C161.478 217.039 161.247 216.981 160.983 216.981C160.707 216.981 160.463 217.045 160.25 217.172C160.039 217.297 159.875 217.466 159.755 217.679C159.636 217.89 159.575 218.124 159.572 218.383V219.452C159.572 219.776 159.632 220.056 159.751 220.292C159.873 220.528 160.045 220.709 160.267 220.837C160.488 220.965 160.751 221.029 161.055 221.029C161.257 221.029 161.441 221.001 161.609 220.944C161.777 220.887 161.92 220.802 162.039 220.688C162.159 220.574 162.25 220.435 162.312 220.27L163.991 220.381C163.906 220.785 163.731 221.137 163.467 221.438C163.206 221.736 162.868 221.969 162.453 222.137C162.041 222.302 161.565 222.384 161.025 222.384ZM167.991 222.256V215.711H169.722V216.866H169.798C169.935 216.482 170.162 216.179 170.48 215.958C170.798 215.736 171.179 215.626 171.622 215.626C172.071 215.626 172.453 215.738 172.768 215.962C173.084 216.184 173.294 216.485 173.399 216.866H173.467C173.601 216.491 173.842 216.191 174.192 215.966C174.544 215.739 174.96 215.626 175.44 215.626C176.051 215.626 176.547 215.82 176.928 216.209C177.311 216.596 177.503 217.144 177.503 217.854V222.256H175.692V218.212C175.692 217.849 175.595 217.576 175.402 217.394C175.209 217.212 174.967 217.121 174.678 217.121C174.348 217.121 174.091 217.226 173.906 217.437C173.722 217.644 173.629 217.918 173.629 218.259V222.256H171.869V218.174C171.869 217.853 171.777 217.597 171.592 217.407C171.41 217.216 171.17 217.121 170.872 217.121C170.67 217.121 170.489 217.172 170.327 217.275C170.168 217.374 170.041 217.515 169.947 217.697C169.854 217.876 169.807 218.086 169.807 218.327V222.256H167.991ZM184.383 217.577L182.721 217.679C182.692 217.537 182.631 217.41 182.538 217.296C182.444 217.179 182.32 217.087 182.167 217.019C182.016 216.948 181.836 216.912 181.626 216.912C181.344 216.912 181.107 216.972 180.914 217.091C180.721 217.208 180.624 217.364 180.624 217.56C180.624 217.716 180.687 217.849 180.812 217.956C180.937 218.064 181.151 218.151 181.455 218.216L182.64 218.455C183.276 218.586 183.751 218.796 184.063 219.086C184.376 219.376 184.532 219.756 184.532 220.228C184.532 220.657 184.406 221.033 184.153 221.357C183.903 221.681 183.559 221.934 183.121 222.116C182.687 222.295 182.185 222.384 181.617 222.384C180.751 222.384 180.06 222.204 179.546 221.843C179.035 221.479 178.735 220.985 178.647 220.36L180.433 220.266C180.486 220.53 180.617 220.732 180.825 220.871C181.032 221.008 181.298 221.076 181.621 221.076C181.94 221.076 182.195 221.015 182.388 220.893C182.585 220.768 182.684 220.607 182.687 220.411C182.684 220.246 182.614 220.111 182.478 220.006C182.342 219.898 182.131 219.816 181.847 219.759L180.714 219.533C180.075 219.405 179.599 219.184 179.286 218.868C178.977 218.553 178.822 218.151 178.822 217.662C178.822 217.242 178.935 216.88 179.163 216.576C179.393 216.272 179.715 216.037 180.13 215.873C180.548 215.708 181.036 215.626 181.596 215.626C182.423 215.626 183.073 215.8 183.548 216.15C184.025 216.499 184.303 216.975 184.383 217.577ZM188.624 224.847C188.036 224.847 187.532 224.766 187.111 224.604C186.694 224.445 186.361 224.228 186.114 223.952C185.867 223.677 185.706 223.367 185.632 223.023L187.311 222.797C187.363 222.928 187.444 223.05 187.554 223.164C187.665 223.278 187.811 223.368 187.993 223.437C188.178 223.508 188.402 223.543 188.667 223.543C189.061 223.543 189.387 223.447 189.642 223.253C189.901 223.063 190.03 222.743 190.03 222.295V221.097H189.953C189.874 221.279 189.755 221.451 189.596 221.613C189.436 221.775 189.232 221.907 188.982 222.009C188.732 222.111 188.434 222.162 188.087 222.162C187.596 222.162 187.148 222.049 186.745 221.822C186.344 221.591 186.024 221.241 185.786 220.769C185.55 220.295 185.432 219.695 185.432 218.971C185.432 218.229 185.553 217.61 185.794 217.113C186.036 216.616 186.357 216.243 186.757 215.996C187.161 215.749 187.603 215.626 188.083 215.626C188.449 215.626 188.756 215.688 189.003 215.813C189.25 215.935 189.449 216.089 189.6 216.273C189.753 216.455 189.871 216.634 189.953 216.81H190.022V215.711H191.824V222.32C191.824 222.877 191.688 223.343 191.415 223.718C191.142 224.093 190.765 224.374 190.282 224.562C189.801 224.752 189.249 224.847 188.624 224.847ZM188.662 220.799C188.955 220.799 189.202 220.726 189.404 220.581C189.608 220.434 189.765 220.224 189.872 219.951C189.983 219.675 190.039 219.346 190.039 218.962C190.039 218.579 189.985 218.246 189.877 217.965C189.769 217.681 189.613 217.461 189.408 217.304C189.203 217.148 188.955 217.07 188.662 217.07C188.364 217.07 188.113 217.151 187.908 217.313C187.703 217.472 187.549 217.694 187.444 217.978C187.338 218.262 187.286 218.59 187.286 218.962C187.286 219.34 187.338 219.667 187.444 219.942C187.551 220.215 187.706 220.427 187.908 220.577C188.113 220.725 188.364 220.799 188.662 220.799ZM195.438 213.529L195.272 219.64H193.712L193.542 213.529H195.438ZM194.492 222.367C194.211 222.367 193.969 222.268 193.767 222.069C193.566 221.867 193.466 221.626 193.469 221.344C193.466 221.066 193.566 220.827 193.767 220.628C193.969 220.429 194.211 220.33 194.492 220.33C194.762 220.33 194.999 220.429 195.203 220.628C195.408 220.827 195.512 221.066 195.515 221.344C195.512 221.532 195.462 221.704 195.365 221.86C195.272 222.013 195.148 222.137 194.995 222.231C194.841 222.322 194.674 222.367 194.492 222.367ZM199.328 213.529L199.162 219.64H197.603L197.432 213.529H199.328ZM198.382 222.367C198.101 222.367 197.86 222.268 197.658 222.069C197.456 221.867 197.357 221.626 197.36 221.344C197.357 221.066 197.456 220.827 197.658 220.628C197.86 220.429 198.101 220.33 198.382 220.33C198.652 220.33 198.89 220.429 199.094 220.628C199.299 220.827 199.402 221.066 199.405 221.344C199.402 221.532 199.353 221.704 199.256 221.86C199.162 222.013 199.039 222.137 198.885 222.231C198.732 222.322 198.564 222.367 198.382 222.367Z" fill="#333333" fill-opacity="0.67"/>
<rect width="207.52" height="38" rx="19" transform="matrix(-1 0 0 1 215.969 95.2066)" fill="#E3E3E5"/>
<path d="M11.111 125.122C11.111 121.224 9.64204 114.207 9.64204 114.207L24.3313 130.969C16.3066 135.499 10.6876 136.947 1.03831 137.207C5.23411 134.044 11.111 129.02 11.111 125.122Z" fill="#E2E1E6"/>
<path d="M21.1508 118.124V109.397H22.996V112.998H26.7417V109.397H28.5826V118.124H26.7417V114.519H22.996V118.124H21.1508ZM31.9363 118.248C31.5187 118.248 31.1466 118.175 30.8199 118.03C30.4932 117.882 30.2346 117.665 30.0443 117.378C29.8568 117.088 29.763 116.728 29.763 116.296C29.763 115.932 29.8298 115.627 29.9633 115.38C30.0968 115.132 30.2787 114.934 30.5088 114.783C30.7389 114.632 31.0003 114.519 31.2929 114.442C31.5883 114.365 31.898 114.311 32.2218 114.28C32.6025 114.24 32.9093 114.204 33.1423 114.169C33.3753 114.132 33.5443 114.079 33.6494 114.007C33.7545 113.936 33.8071 113.831 33.8071 113.692V113.667C33.8071 113.397 33.7218 113.188 33.5514 113.04C33.3838 112.892 33.1451 112.819 32.8355 112.819C32.5088 112.819 32.2488 112.891 32.0557 113.036C31.8625 113.178 31.7346 113.357 31.6721 113.573L29.9932 113.436C30.0784 113.039 30.246 112.695 30.496 112.405C30.746 112.113 31.0684 111.888 31.4633 111.732C31.8611 111.573 32.3213 111.493 32.844 111.493C33.2076 111.493 33.5557 111.536 33.888 111.621C34.2233 111.706 34.5201 111.838 34.7787 112.017C35.04 112.196 35.246 112.427 35.3966 112.708C35.5471 112.986 35.6224 113.32 35.6224 113.709V118.124H33.9008V117.216H33.8497C33.7446 117.421 33.604 117.601 33.4278 117.757C33.2517 117.911 33.04 118.032 32.7929 118.12C32.5457 118.205 32.2602 118.248 31.9363 118.248ZM32.4562 116.995C32.7233 116.995 32.9591 116.942 33.1636 116.837C33.3682 116.729 33.5287 116.584 33.6451 116.402C33.7616 116.221 33.8199 116.015 33.8199 115.784V115.09C33.763 115.127 33.6849 115.161 33.5855 115.192C33.4889 115.221 33.3795 115.248 33.2574 115.273C33.1352 115.296 33.013 115.317 32.8909 115.337C32.7687 115.354 32.6579 115.37 32.5585 115.384C32.3454 115.415 32.1593 115.465 32.0003 115.533C31.8412 115.601 31.7176 115.694 31.6295 115.81C31.5415 115.924 31.4974 116.066 31.4974 116.236C31.4974 116.483 31.5869 116.672 31.7659 116.803C31.9477 116.931 32.1778 116.995 32.4562 116.995ZM42.8987 111.579L40.6103 118.124H38.5649L36.2765 111.579H38.1942L39.5535 116.262H39.6217L40.9768 111.579H42.8987ZM46.5997 118.252C45.9264 118.252 45.3468 118.115 44.8611 117.843C44.3781 117.567 44.0059 117.178 43.7446 116.675C43.4832 116.169 43.3525 115.571 43.3525 114.881C43.3525 114.208 43.4832 113.617 43.7446 113.108C44.0059 112.6 44.3738 112.204 44.8483 111.919C45.3255 111.635 45.8852 111.493 46.5272 111.493C46.9591 111.493 47.3611 111.563 47.7332 111.702C48.1082 111.838 48.4349 112.044 48.7133 112.32C48.9946 112.596 49.2133 112.942 49.3696 113.36C49.5258 113.775 49.604 114.26 49.604 114.817V115.316H44.077V114.191H47.8951C47.8951 113.929 47.8383 113.698 47.7247 113.496C47.6111 113.294 47.4534 113.137 47.2517 113.023C47.0528 112.907 46.8213 112.848 46.5571 112.848C46.2815 112.848 46.0372 112.912 45.8241 113.04C45.6139 113.165 45.4491 113.334 45.3298 113.547C45.2105 113.757 45.1494 113.992 45.1466 114.25V115.32C45.1466 115.644 45.2062 115.924 45.3255 116.159C45.4477 116.395 45.6196 116.577 45.8412 116.705C46.0628 116.833 46.3255 116.897 46.6295 116.897C46.8312 116.897 47.0159 116.868 47.1835 116.811C47.3511 116.755 47.4946 116.669 47.6139 116.556C47.7332 116.442 47.8241 116.303 47.8866 116.138L49.5656 116.249C49.4804 116.652 49.3057 117.005 49.0415 117.306C48.7801 117.604 48.442 117.837 48.0272 118.005C47.6153 118.169 47.1395 118.252 46.5997 118.252ZM55.4324 118.248C55.0148 118.248 54.6427 118.175 54.316 118.03C53.9892 117.882 53.7307 117.665 53.5404 117.378C53.3529 117.088 53.2591 116.728 53.2591 116.296C53.2591 115.932 53.3259 115.627 53.4594 115.38C53.5929 115.132 53.7748 114.934 54.0049 114.783C54.235 114.632 54.4964 114.519 54.789 114.442C55.0844 114.365 55.3941 114.311 55.7179 114.28C56.0986 114.24 56.4054 114.204 56.6384 114.169C56.8714 114.132 57.0404 114.079 57.1455 114.007C57.2506 113.936 57.3032 113.831 57.3032 113.692V113.667C57.3032 113.397 57.2179 113.188 57.0475 113.04C56.8799 112.892 56.6412 112.819 56.3316 112.819C56.0049 112.819 55.7449 112.891 55.5517 113.036C55.3586 113.178 55.2307 113.357 55.1682 113.573L53.4892 113.436C53.5745 113.039 53.7421 112.695 53.9921 112.405C54.2421 112.113 54.5645 111.888 54.9594 111.732C55.3571 111.573 55.8174 111.493 56.3401 111.493C56.7037 111.493 57.0517 111.536 57.3841 111.621C57.7194 111.706 58.0162 111.838 58.2748 112.017C58.5361 112.196 58.7421 112.427 58.8927 112.708C59.0432 112.986 59.1185 113.32 59.1185 113.709V118.124H57.3969V117.216H57.3458C57.2407 117.421 57.1 117.601 56.9239 117.757C56.7478 117.911 56.5361 118.032 56.289 118.12C56.0418 118.205 55.7563 118.248 55.4324 118.248ZM55.9523 116.995C56.2194 116.995 56.4552 116.942 56.6597 116.837C56.8642 116.729 57.0248 116.584 57.1412 116.402C57.2577 116.221 57.316 116.015 57.316 115.784V115.09C57.2591 115.127 57.181 115.161 57.0816 115.192C56.985 115.221 56.8756 115.248 56.7535 115.273C56.6313 115.296 56.5091 115.317 56.387 115.337C56.2648 115.354 56.154 115.37 56.0546 115.384C55.8415 115.415 55.6554 115.465 55.4964 115.533C55.3373 115.601 55.2137 115.694 55.1256 115.81C55.0375 115.924 54.9935 116.066 54.9935 116.236C54.9935 116.483 55.083 116.672 55.262 116.803C55.4438 116.931 55.6739 116.995 55.9523 116.995ZM62.3422 114.34V118.124H60.5269V111.579H62.257V112.733H62.3337C62.4786 112.353 62.7215 112.052 63.0624 111.83C63.4033 111.606 63.8167 111.493 64.3025 111.493C64.757 111.493 65.1533 111.593 65.4914 111.792C65.8294 111.99 66.0922 112.275 66.2797 112.644C66.4672 113.01 66.561 113.448 66.561 113.956V118.124H64.7456V114.28C64.7485 113.88 64.6462 113.567 64.4388 113.343C64.2314 113.115 63.9459 113.002 63.5823 113.002C63.338 113.002 63.1221 113.054 62.9346 113.159C62.7499 113.265 62.605 113.418 62.4999 113.62C62.3976 113.819 62.3451 114.059 62.3422 114.34ZM68.8781 120.579C68.648 120.579 68.4321 120.56 68.2304 120.523C68.0315 120.489 67.8667 120.445 67.7361 120.391L68.1451 119.036C68.3582 119.101 68.55 119.137 68.7204 119.142C68.8937 119.148 69.0429 119.108 69.1679 119.023C69.2957 118.938 69.3994 118.793 69.479 118.588L69.5855 118.311L67.2375 111.579H69.1466L70.5017 116.385H70.5699L71.9378 111.579H73.8596L71.3156 118.831C71.1934 119.184 71.0272 119.49 70.817 119.752C70.6096 120.016 70.3468 120.219 70.0287 120.361C69.7105 120.506 69.327 120.579 68.8781 120.579ZM81.8912 120.579V117.076H81.8358C81.7506 117.257 81.6299 117.438 81.4736 117.617C81.3202 117.793 81.1199 117.939 80.8728 118.056C80.6285 118.172 80.3302 118.231 79.9779 118.231C79.4807 118.231 79.0304 118.103 78.627 117.847C78.2265 117.588 77.9083 117.209 77.6725 116.709C77.4395 116.206 77.3231 115.59 77.3231 114.86C77.3231 114.11 77.4438 113.486 77.6853 112.989C77.9267 112.489 78.2478 112.115 78.6483 111.868C79.0517 111.618 79.4935 111.493 79.9736 111.493C80.3401 111.493 80.6455 111.556 80.8898 111.681C81.137 111.803 81.3358 111.956 81.4864 112.141C81.6398 112.323 81.7563 112.502 81.8358 112.678H81.9125V111.579H83.7023V120.579H81.8912ZM80.5532 116.786C80.8458 116.786 81.0929 116.706 81.2946 116.547C81.4992 116.385 81.6554 116.159 81.7634 115.87C81.8742 115.58 81.9296 115.24 81.9296 114.851C81.9296 114.462 81.8756 114.124 81.7677 113.837C81.6597 113.55 81.5035 113.329 81.2989 113.172C81.0944 113.016 80.8458 112.938 80.5532 112.938C80.2549 112.938 80.0035 113.019 79.7989 113.181C79.5944 113.343 79.4395 113.567 79.3344 113.854C79.2293 114.141 79.1767 114.473 79.1767 114.851C79.1767 115.232 79.2293 115.569 79.3344 115.861C79.4424 116.151 79.5972 116.378 79.7989 116.543C80.0035 116.705 80.2549 116.786 80.5532 116.786ZM89.3571 115.337V111.579H91.1725V118.124H89.4296V116.935H89.3614C89.2137 117.319 88.9679 117.627 88.6242 117.86C88.2833 118.093 87.8671 118.209 87.3756 118.209C86.9381 118.209 86.5532 118.11 86.2208 117.911C85.8884 117.712 85.6285 117.429 85.441 117.063C85.2563 116.696 85.1625 116.257 85.1597 115.746V111.579H86.975V115.422C86.9779 115.809 87.0816 116.114 87.2861 116.338C87.4907 116.563 87.7648 116.675 88.1086 116.675C88.3273 116.675 88.5319 116.625 88.7222 116.526C88.9125 116.424 89.066 116.273 89.1824 116.074C89.3017 115.875 89.36 115.63 89.3571 115.337ZM95.6075 118.252C94.9342 118.252 94.3547 118.115 93.8689 117.843C93.3859 117.567 93.0138 117.178 92.7524 116.675C92.491 116.169 92.3603 115.571 92.3603 114.881C92.3603 114.208 92.491 113.617 92.7524 113.108C93.0138 112.6 93.3817 112.204 93.8561 111.919C94.3334 111.635 94.893 111.493 95.5351 111.493C95.9669 111.493 96.3689 111.563 96.741 111.702C97.116 111.838 97.4427 112.044 97.7211 112.32C98.0024 112.596 98.2211 112.942 98.3774 113.36C98.5336 113.775 98.6118 114.26 98.6118 114.817V115.316H93.0848V114.191H96.903C96.903 113.929 96.8461 113.698 96.7325 113.496C96.6189 113.294 96.4612 113.137 96.2595 113.023C96.0606 112.907 95.8291 112.848 95.5649 112.848C95.2893 112.848 95.045 112.912 94.8319 113.04C94.6217 113.165 94.4569 113.334 94.3376 113.547C94.2183 113.757 94.1572 113.992 94.1544 114.25V115.32C94.1544 115.644 94.214 115.924 94.3334 116.159C94.4555 116.395 94.6274 116.577 94.849 116.705C95.0706 116.833 95.3334 116.897 95.6373 116.897C95.839 116.897 96.0237 116.868 96.1913 116.811C96.3589 116.755 96.5024 116.669 96.6217 116.556C96.741 116.442 96.8319 116.303 96.8944 116.138L98.5734 116.249C98.4882 116.652 98.3135 117.005 98.0493 117.306C97.7879 117.604 97.4498 117.837 97.0351 118.005C96.6231 118.169 96.1473 118.252 95.6075 118.252ZM105.242 113.445L103.581 113.547C103.552 113.405 103.491 113.277 103.397 113.164C103.304 113.047 103.18 112.955 103.027 112.887C102.876 112.816 102.696 112.78 102.485 112.78C102.204 112.78 101.967 112.84 101.774 112.959C101.581 113.076 101.484 113.232 101.484 113.428C101.484 113.584 101.546 113.716 101.671 113.824C101.796 113.932 102.011 114.019 102.315 114.084L103.5 114.323C104.136 114.454 104.61 114.664 104.923 114.954C105.235 115.243 105.392 115.624 105.392 116.096C105.392 116.525 105.265 116.901 105.012 117.225C104.762 117.549 104.419 117.802 103.981 117.983C103.546 118.162 103.045 118.252 102.477 118.252C101.61 118.252 100.92 118.071 100.406 117.711C99.8944 117.347 99.5947 116.853 99.5067 116.228L101.292 116.134C101.346 116.398 101.477 116.6 101.684 116.739C101.892 116.875 102.157 116.944 102.481 116.944C102.799 116.944 103.055 116.882 103.248 116.76C103.444 116.635 103.544 116.475 103.546 116.279C103.544 116.114 103.474 115.979 103.338 115.874C103.201 115.766 102.991 115.684 102.707 115.627L101.573 115.401C100.934 115.273 100.458 115.052 100.146 114.736C99.8362 114.421 99.6814 114.019 99.6814 113.53C99.6814 113.11 99.795 112.748 100.022 112.444C100.252 112.14 100.575 111.905 100.99 111.74C101.407 111.576 101.896 111.493 102.456 111.493C103.282 111.493 103.933 111.668 104.407 112.017C104.884 112.367 105.163 112.843 105.242 113.445ZM110.016 111.579V112.942H106.074V111.579H110.016ZM106.969 110.01H108.785V116.113C108.785 116.28 108.81 116.411 108.861 116.505C108.913 116.596 108.984 116.659 109.074 116.696C109.168 116.733 109.276 116.752 109.398 116.752C109.484 116.752 109.569 116.745 109.654 116.731C109.739 116.713 109.805 116.701 109.85 116.692L110.136 118.043C110.045 118.071 109.917 118.104 109.752 118.141C109.587 118.181 109.387 118.205 109.151 118.213C108.714 118.231 108.33 118.172 108.001 118.039C107.674 117.905 107.42 117.698 107.238 117.417C107.056 117.135 106.967 116.78 106.969 116.351V110.01ZM111.199 118.124V111.579H113.014V118.124H111.199ZM112.111 110.735C111.841 110.735 111.609 110.645 111.416 110.466C111.226 110.284 111.131 110.067 111.131 109.814C111.131 109.564 111.226 109.35 111.416 109.171C111.609 108.989 111.841 108.898 112.111 108.898C112.381 108.898 112.611 108.989 112.801 109.171C112.994 109.35 113.091 109.564 113.091 109.814C113.091 110.067 112.994 110.284 112.801 110.466C112.611 110.645 112.381 110.735 112.111 110.735ZM117.426 118.252C116.764 118.252 116.191 118.111 115.708 117.83C115.228 117.546 114.858 117.151 114.596 116.645C114.335 116.137 114.204 115.547 114.204 114.877C114.204 114.201 114.335 113.61 114.596 113.104C114.858 112.596 115.228 112.201 115.708 111.919C116.191 111.635 116.764 111.493 117.426 111.493C118.088 111.493 118.659 111.635 119.139 111.919C119.622 112.201 119.994 112.596 120.255 113.104C120.517 113.61 120.647 114.201 120.647 114.877C120.647 115.547 120.517 116.137 120.255 116.645C119.994 117.151 119.622 117.546 119.139 117.83C118.659 118.111 118.088 118.252 117.426 118.252ZM117.434 116.846C117.735 116.846 117.987 116.76 118.188 116.59C118.39 116.417 118.542 116.181 118.644 115.882C118.75 115.584 118.802 115.245 118.802 114.864C118.802 114.483 118.75 114.144 118.644 113.846C118.542 113.547 118.39 113.311 118.188 113.138C117.987 112.965 117.735 112.878 117.434 112.878C117.13 112.878 116.875 112.965 116.667 113.138C116.463 113.311 116.308 113.547 116.203 113.846C116.1 114.144 116.049 114.483 116.049 114.864C116.049 115.245 116.1 115.584 116.203 115.882C116.308 116.181 116.463 116.417 116.667 116.59C116.875 116.76 117.13 116.846 117.434 116.846ZM123.643 114.34V118.124H121.828V111.579H123.558V112.733H123.634C123.779 112.353 124.022 112.052 124.363 111.83C124.704 111.606 125.117 111.493 125.603 111.493C126.058 111.493 126.454 111.593 126.792 111.792C127.13 111.99 127.393 112.275 127.581 112.644C127.768 113.01 127.862 113.448 127.862 113.956V118.124H126.046V114.28C126.049 113.88 125.947 113.567 125.74 113.343C125.532 113.115 125.247 113.002 124.883 113.002C124.639 113.002 124.423 113.054 124.235 113.159C124.051 113.265 123.906 113.418 123.801 113.62C123.698 113.819 123.646 114.059 123.643 114.34ZM133.936 118.248C133.519 118.248 133.147 118.175 132.82 118.03C132.493 117.882 132.235 117.665 132.044 117.378C131.857 117.088 131.763 116.728 131.763 116.296C131.763 115.932 131.83 115.627 131.963 115.38C132.097 115.132 132.279 114.934 132.509 114.783C132.739 114.632 133 114.519 133.293 114.442C133.588 114.365 133.898 114.311 134.222 114.28C134.603 114.24 134.909 114.204 135.142 114.169C135.375 114.132 135.544 114.079 135.649 114.007C135.755 113.936 135.807 113.831 135.807 113.692V113.667C135.807 113.397 135.722 113.188 135.551 113.04C135.384 112.892 135.145 112.819 134.835 112.819C134.509 112.819 134.249 112.891 134.056 113.036C133.862 113.178 133.735 113.357 133.672 113.573L131.993 113.436C132.078 113.039 132.246 112.695 132.496 112.405C132.746 112.113 133.068 111.888 133.463 111.732C133.861 111.573 134.321 111.493 134.844 111.493C135.208 111.493 135.556 111.536 135.888 111.621C136.223 111.706 136.52 111.838 136.779 112.017C137.04 112.196 137.246 112.427 137.397 112.708C137.547 112.986 137.622 113.32 137.622 113.709V118.124H135.901V117.216H135.85C135.745 117.421 135.604 117.601 135.428 117.757C135.252 117.911 135.04 118.032 134.793 118.12C134.546 118.205 134.26 118.248 133.936 118.248ZM134.456 116.995C134.723 116.995 134.959 116.942 135.164 116.837C135.368 116.729 135.529 116.584 135.645 116.402C135.762 116.221 135.82 116.015 135.82 115.784V115.09C135.763 115.127 135.685 115.161 135.585 115.192C135.489 115.221 135.38 115.248 135.257 115.273C135.135 115.296 135.013 115.317 134.891 115.337C134.769 115.354 134.658 115.37 134.558 115.384C134.345 115.415 134.159 115.465 134 115.533C133.841 115.601 133.718 115.694 133.63 115.81C133.541 115.924 133.497 116.066 133.497 116.236C133.497 116.483 133.587 116.672 133.766 116.803C133.948 116.931 134.178 116.995 134.456 116.995ZM139.065 118.124V109.397H140.88V112.678H140.936C141.015 112.502 141.13 112.323 141.281 112.141C141.434 111.956 141.633 111.803 141.877 111.681C142.125 111.556 142.431 111.493 142.798 111.493C143.275 111.493 143.715 111.618 144.119 111.868C144.522 112.115 144.845 112.489 145.086 112.989C145.328 113.486 145.448 114.11 145.448 114.86C145.448 115.59 145.331 116.206 145.095 116.709C144.862 117.209 144.544 117.588 144.14 117.847C143.74 118.103 143.291 118.231 142.794 118.231C142.441 118.231 142.142 118.172 141.894 118.056C141.65 117.939 141.45 117.793 141.294 117.617C141.137 117.438 141.018 117.257 140.936 117.076H140.855V118.124H139.065ZM140.842 114.851C140.842 115.24 140.896 115.58 141.004 115.87C141.112 116.159 141.268 116.385 141.473 116.547C141.677 116.706 141.926 116.786 142.218 116.786C142.514 116.786 142.764 116.705 142.968 116.543C143.173 116.378 143.328 116.151 143.433 115.861C143.541 115.569 143.595 115.232 143.595 114.851C143.595 114.473 143.542 114.141 143.437 113.854C143.332 113.567 143.177 113.343 142.973 113.181C142.768 113.019 142.517 112.938 142.218 112.938C141.923 112.938 141.673 113.016 141.468 113.172C141.267 113.329 141.112 113.55 141.004 113.837C140.896 114.124 140.842 114.462 140.842 114.851ZM149.617 118.252C148.955 118.252 148.383 118.111 147.9 117.83C147.42 117.546 147.049 117.151 146.788 116.645C146.526 116.137 146.395 115.547 146.395 114.877C146.395 114.201 146.526 113.61 146.788 113.104C147.049 112.596 147.42 112.201 147.9 111.919C148.383 111.635 148.955 111.493 149.617 111.493C150.279 111.493 150.85 111.635 151.33 111.919C151.813 112.201 152.185 112.596 152.447 113.104C152.708 113.61 152.839 114.201 152.839 114.877C152.839 115.547 152.708 116.137 152.447 116.645C152.185 117.151 151.813 117.546 151.33 117.83C150.85 118.111 150.279 118.252 149.617 118.252ZM149.626 116.846C149.927 116.846 150.178 116.76 150.38 116.59C150.582 116.417 150.734 116.181 150.836 115.882C150.941 115.584 150.994 115.245 150.994 114.864C150.994 114.483 150.941 114.144 150.836 113.846C150.734 113.547 150.582 113.311 150.38 113.138C150.178 112.965 149.927 112.878 149.626 112.878C149.322 112.878 149.066 112.965 148.859 113.138C148.654 113.311 148.499 113.547 148.394 113.846C148.292 114.144 148.241 114.483 148.241 114.864C148.241 115.245 148.292 115.584 148.394 115.882C148.499 116.181 148.654 116.417 148.859 116.59C149.066 116.76 149.322 116.846 149.626 116.846ZM158.217 115.337V111.579H160.032V118.124H158.289V116.935H158.221C158.073 117.319 157.827 117.627 157.484 117.86C157.143 118.093 156.726 118.209 156.235 118.209C155.797 118.209 155.413 118.11 155.08 117.911C154.748 117.712 154.488 117.429 154.3 117.063C154.116 116.696 154.022 116.257 154.019 115.746V111.579H155.834V115.422C155.837 115.809 155.941 116.114 156.145 116.338C156.35 116.563 156.624 116.675 156.968 116.675C157.187 116.675 157.391 116.625 157.582 116.526C157.772 116.424 157.925 116.273 158.042 116.074C158.161 115.875 158.219 115.63 158.217 115.337ZM164.965 111.579V112.942H161.024V111.579H164.965ZM161.919 110.01H163.734V116.113C163.734 116.28 163.759 116.411 163.811 116.505C163.862 116.596 163.933 116.659 164.024 116.696C164.117 116.733 164.225 116.752 164.348 116.752C164.433 116.752 164.518 116.745 164.603 116.731C164.688 116.713 164.754 116.701 164.799 116.692L165.085 118.043C164.994 118.071 164.866 118.104 164.701 118.141C164.536 118.181 164.336 118.205 164.1 118.213C163.663 118.231 163.279 118.172 162.95 118.039C162.623 117.905 162.369 117.698 162.187 117.417C162.005 117.135 161.916 116.78 161.919 116.351V110.01ZM168.925 118.124V111.579H170.655V112.733H170.732C170.869 112.35 171.096 112.047 171.414 111.826C171.732 111.604 172.113 111.493 172.556 111.493C173.005 111.493 173.387 111.606 173.702 111.83C174.018 112.052 174.228 112.353 174.333 112.733H174.401C174.535 112.358 174.776 112.059 175.126 111.834C175.478 111.607 175.894 111.493 176.374 111.493C176.985 111.493 177.481 111.688 177.861 112.077C178.245 112.463 178.437 113.012 178.437 113.722V118.124H176.626V114.08C176.626 113.716 176.529 113.444 176.336 113.262C176.143 113.08 175.901 112.989 175.611 112.989C175.282 112.989 175.025 113.094 174.84 113.304C174.655 113.512 174.563 113.786 174.563 114.127V118.124H172.803V114.042C172.803 113.721 172.711 113.465 172.526 113.275C172.344 113.084 172.104 112.989 171.806 112.989C171.604 112.989 171.422 113.04 171.261 113.142C171.101 113.242 170.975 113.382 170.881 113.564C170.788 113.743 170.741 113.954 170.741 114.195V118.124H168.925ZM182.854 118.252C182.18 118.252 181.601 118.115 181.115 117.843C180.632 117.567 180.26 117.178 179.998 116.675C179.737 116.169 179.606 115.571 179.606 114.881C179.606 114.208 179.737 113.617 179.998 113.108C180.26 112.6 180.628 112.204 181.102 111.919C181.579 111.635 182.139 111.493 182.781 111.493C183.213 111.493 183.615 111.563 183.987 111.702C184.362 111.838 184.689 112.044 184.967 112.32C185.248 112.596 185.467 112.942 185.623 113.36C185.78 113.775 185.858 114.26 185.858 114.817V115.316H180.331V114.191H184.149C184.149 113.929 184.092 113.698 183.979 113.496C183.865 113.294 183.707 113.137 183.506 113.023C183.307 112.907 183.075 112.848 182.811 112.848C182.535 112.848 182.291 112.912 182.078 113.04C181.868 113.165 181.703 113.334 181.584 113.547C181.464 113.757 181.403 113.992 181.4 114.25V115.32C181.4 115.644 181.46 115.924 181.579 116.159C181.702 116.395 181.873 116.577 182.095 116.705C182.317 116.833 182.579 116.897 182.883 116.897C183.085 116.897 183.27 116.868 183.437 116.811C183.605 116.755 183.748 116.669 183.868 116.556C183.987 116.442 184.078 116.303 184.141 116.138L185.82 116.249C185.734 116.652 185.56 117.005 185.295 117.306C185.034 117.604 184.696 117.837 184.281 118.005C183.869 118.169 183.393 118.252 182.854 118.252ZM188.602 115.507V115.363C188.605 114.865 188.649 114.469 188.734 114.174C188.822 113.878 188.95 113.64 189.118 113.458C189.285 113.276 189.487 113.111 189.723 112.963C189.899 112.85 190.057 112.732 190.196 112.61C190.335 112.488 190.446 112.353 190.528 112.205C190.611 112.054 190.652 111.887 190.652 111.702C190.652 111.506 190.605 111.334 190.511 111.186C190.418 111.039 190.291 110.925 190.132 110.846C189.976 110.766 189.802 110.726 189.612 110.726C189.427 110.726 189.253 110.767 189.088 110.85C188.923 110.929 188.788 111.049 188.683 111.208C188.578 111.364 188.521 111.559 188.513 111.792H186.774C186.788 111.223 186.925 110.755 187.183 110.385C187.442 110.013 187.784 109.736 188.21 109.554C188.636 109.37 189.106 109.277 189.621 109.277C190.186 109.277 190.686 109.371 191.121 109.559C191.555 109.743 191.896 110.012 192.143 110.364C192.391 110.716 192.514 111.141 192.514 111.638C192.514 111.971 192.459 112.266 192.348 112.525C192.24 112.78 192.088 113.007 191.892 113.206C191.696 113.402 191.464 113.58 191.197 113.739C190.973 113.873 190.788 114.012 190.643 114.157C190.501 114.302 190.395 114.469 190.324 114.659C190.256 114.85 190.22 115.084 190.217 115.363V115.507H188.602ZM189.446 118.235C189.162 118.235 188.919 118.135 188.717 117.936C188.518 117.735 188.42 117.493 188.423 117.212C188.42 116.934 188.518 116.695 188.717 116.496C188.919 116.297 189.162 116.198 189.446 116.198C189.716 116.198 189.953 116.297 190.158 116.496C190.362 116.695 190.466 116.934 190.469 117.212C190.466 117.4 190.416 117.571 190.32 117.728C190.226 117.881 190.102 118.005 189.949 118.098C189.795 118.189 189.628 118.235 189.446 118.235Z" fill="#333333" fill-opacity="0.67"/>
<rect width="65.2754" height="38" rx="19" transform="matrix(-1 0 0 1 264.632 47.6033)" fill="#CAABB8"/>
<path d="M263.427 77.5186C263.427 73.6203 264.531 66.6033 264.531 66.6033L253.487 83.366C259.52 87.8954 263.745 89.3437 271 89.6033C267.845 86.4403 263.427 81.4169 263.427 77.5186Z" fill="#CAABB8"/>
<path d="M218.116 71.5041V62.7769H219.962V66.3777H223.707V62.7769H225.548V71.5041H223.707V67.899H219.962V71.5041H218.116ZM230.018 71.632C229.345 71.632 228.766 71.4956 228.28 71.2229C227.797 70.9473 227.425 70.5581 227.163 70.0553C226.902 69.5496 226.771 68.9516 226.771 68.2612C226.771 67.5879 226.902 66.997 227.163 66.4885C227.425 65.98 227.793 65.5837 228.267 65.2996C228.744 65.0155 229.304 64.8735 229.946 64.8735C230.378 64.8735 230.78 64.9431 231.152 65.0823C231.527 65.2186 231.854 65.4246 232.132 65.7002C232.413 65.9757 232.632 66.3223 232.788 66.7399C232.945 67.1547 233.023 67.6405 233.023 68.1973V68.6959H227.496V67.5709H231.314C231.314 67.3095 231.257 67.078 231.143 66.8763C231.03 66.6746 230.872 66.5169 230.67 66.4033C230.472 66.2868 230.24 66.2286 229.976 66.2286C229.7 66.2286 229.456 66.2925 229.243 66.4203C229.033 66.5453 228.868 66.7144 228.749 66.9274C228.629 67.1377 228.568 67.372 228.565 67.6306V68.7002C228.565 69.024 228.625 69.3039 228.744 69.5396C228.866 69.7754 229.038 69.9573 229.26 70.0851C229.482 70.2129 229.744 70.2769 230.048 70.2769C230.25 70.2769 230.435 70.2485 230.602 70.1916C230.77 70.1348 230.913 70.0496 231.033 69.936C231.152 69.8223 231.243 69.6831 231.305 69.5183L232.984 69.6291C232.899 70.0325 232.724 70.3848 232.46 70.686C232.199 70.9842 231.861 71.2172 231.446 71.3848C231.034 71.5496 230.558 71.632 230.018 71.632ZM236.023 62.7769V71.5041H234.207V62.7769H236.023ZM239.292 62.7769V71.5041H237.477V62.7769H239.292ZM243.704 71.632C243.042 71.632 242.469 71.4914 241.987 71.2101C241.506 70.926 241.136 70.5311 240.874 70.0254C240.613 69.5169 240.482 68.9274 240.482 68.257C240.482 67.5808 240.613 66.9899 240.874 66.4842C241.136 65.9757 241.506 65.5808 241.987 65.2996C242.469 65.0155 243.042 64.8735 243.704 64.8735C244.366 64.8735 244.937 65.0155 245.417 65.2996C245.9 65.5808 246.272 65.9757 246.533 66.4842C246.795 66.9899 246.925 67.5808 246.925 68.257C246.925 68.9274 246.795 69.5169 246.533 70.0254C246.272 70.5311 245.9 70.926 245.417 71.2101C244.937 71.4914 244.366 71.632 243.704 71.632ZM243.712 70.2257C244.014 70.2257 244.265 70.1405 244.467 69.97C244.668 69.7967 244.82 69.561 244.923 69.2627C245.028 68.9644 245.08 68.6249 245.08 68.2442C245.08 67.8635 245.028 67.524 244.923 67.2257C244.82 66.9274 244.668 66.6916 244.467 66.5183C244.265 66.345 244.014 66.2584 243.712 66.2584C243.408 66.2584 243.153 66.345 242.945 66.5183C242.741 66.6916 242.586 66.9274 242.481 67.2257C242.379 67.524 242.327 67.8635 242.327 68.2442C242.327 68.6249 242.379 68.9644 242.481 69.2627C242.586 69.561 242.741 69.7967 242.945 69.97C243.153 70.1405 243.408 70.2257 243.712 70.2257ZM250.275 62.7769L250.109 68.8877H248.549L248.379 62.7769H250.275ZM249.329 71.6149C249.048 71.6149 248.806 71.5155 248.604 71.3166C248.403 71.1149 248.303 70.8735 248.306 70.5922C248.303 70.3138 248.403 70.0752 248.604 69.8763C248.806 69.6774 249.048 69.578 249.329 69.578C249.599 69.578 249.836 69.6774 250.04 69.8763C250.245 70.0752 250.349 70.3138 250.352 70.5922C250.349 70.7797 250.299 70.9516 250.202 71.1078C250.109 71.2612 249.985 71.3848 249.832 71.4786C249.678 71.5695 249.511 71.6149 249.329 71.6149Z" fill="#333333" fill-opacity="0.65"/>
<path fill-rule="evenodd" clip-rule="evenodd" d="M202.337 195.354C202.018 195.548 201.579 195.885 201.361 196.103C201.144 196.32 200.825 196.713 200.653 196.976C200.481 197.238 200.264 197.783 200.17 198.187C200.077 198.59 200 199.195 200 199.53C200 199.866 200.075 200.454 200.167 200.838C200.258 201.221 200.58 202.021 200.882 202.616C201.243 203.325 201.956 204.224 202.959 205.233C203.799 206.078 204.76 206.962 205.096 207.197C205.431 207.431 205.812 207.727 205.943 207.854C206.073 207.981 206.561 208.277 207.026 208.513C207.492 208.749 207.981 208.942 208.113 208.942C208.245 208.942 208.855 208.618 209.469 208.223C210.083 207.827 210.625 207.451 210.673 207.387C210.721 207.322 211.035 207.078 211.37 206.844C211.706 206.61 212.381 206.019 212.871 205.53C213.361 205.041 214.147 204.06 214.618 203.349C215.089 202.639 215.584 201.744 215.718 201.36C215.852 200.977 215.958 200.177 215.953 199.583C215.949 198.989 215.839 198.141 215.708 197.698C215.577 197.256 215.233 196.634 214.942 196.317C214.651 195.999 214.14 195.573 213.807 195.37C213.331 195.08 212.918 195 211.893 195C210.872 195 210.454 195.08 209.985 195.366C209.655 195.568 209.163 195.97 208.892 196.26C208.621 196.55 208.322 196.914 208.229 197.07C208.077 197.322 208.026 197.313 207.754 196.984C207.586 196.781 207.292 196.418 207.1 196.177C206.908 195.936 206.477 195.572 206.141 195.369C205.664 195.08 205.247 195 204.224 195C203.217 195 202.784 195.081 202.337 195.354Z" fill="#E99EBD"/>
</svg>
